<?xml version="1.0" encoding="utf-8"?>
<!DOCTYPE svg PUBLIC "-//W3C//DTD SVG 1.0//EN" "http://www.w3.org/TR/2001/REC-SVG-20010904/DTD/svg10.dtd">
<svg version="1.0" xmlns="http://www.w3.org/2000/svg" xmlns:xlink="http://www.w3.org/1999/xlink" x="0px" y="0px" width="96px"
	 height="96px" viewBox="0 0 96 96" enable-background="new 0 0 96 96" xml:space="preserve">
<g id="_x32__action_about">
	<g display="inline">
		<path fill="#333333" d="M50.45,32.071c-0.315-0.242-0.681-0.415-1.102-0.512c-0.417-0.097-0.864-0.146-1.338-0.146
			c-0.475,0-0.925,0.049-1.35,0.146c-0.426,0.097-0.795,0.27-1.111,0.512c-0.313,0.243-0.561,0.566-0.743,0.963
			c-0.181,0.398-0.272,0.898-0.272,1.498c0,0.586,0.092,1.082,0.272,1.484c0.183,0.406,0.43,0.732,0.743,0.976
			c0.316,0.242,0.686,0.42,1.111,0.523c0.425,0.104,0.875,0.156,1.35,0.156c0.474,0,0.921-0.053,1.338-0.156
			c0.421-0.104,0.786-0.281,1.102-0.523c0.312-0.243,0.566-0.569,0.752-0.976c0.188-0.402,0.283-0.898,0.283-1.484
			c0-0.6-0.096-1.1-0.283-1.498C51.017,32.638,50.763,32.314,50.45,32.071z"/>
		<rect x="44.807" y="40.582" fill="#333333" width="6.388" height="23.402"/>
		<path fill="#333333" d="M47.997,16.68c-17.267,0-31.314,14.051-31.314,31.321c0,17.27,14.048,31.319,31.314,31.319
			c17.27,0,31.32-14.05,31.32-31.319C79.317,30.73,65.267,16.68,47.997,16.68z M47.997,74.798
			c-14.773,0-26.792-12.021-26.792-26.797c0-14.777,12.019-26.799,26.792-26.799c14.775,0,26.797,12.021,26.797,26.799
			C74.794,62.776,62.772,74.798,47.997,74.798z"/>
	</g>
</g>
</svg>
