<?xml version="1.0" encoding="utf-8"?>
<!DOCTYPE svg PUBLIC "-//W3C//DTD SVG 1.0//EN" "http://www.w3.org/TR/2001/REC-SVG-20010904/DTD/svg10.dtd">
<svg version="1.0" xmlns="http://www.w3.org/2000/svg" xmlns:xlink="http://www.w3.org/1999/xlink" x="0px" y="0px" width="96px"
	 height="96px" viewBox="0 0 96 96" enable-background="new 0 0 96 96" xml:space="preserve">
<g id="_x32__action_search">
	<path display="inline" fill="#333333" d="M79.494,70.18L67.33,58.012c-1.07-1.068-3.008-0.967-4.95,0.045l-5.308-5.305
		c6.914-9.034,6.262-22.002-2.003-30.268c-8.999-8.995-23.586-8.995-32.586,0c-8.995,9-8.995,23.588,0,32.587
		c8.268,8.265,21.236,8.917,30.269,2.001l5.307,5.304c-1.012,1.946-1.115,3.882-0.047,4.952l12.166,12.168
		c1.537,1.535,4.874,0.691,7.441-1.883C80.189,75.046,81.033,71.715,79.494,70.18z M25.91,51.646c-7.104-7.11-7.104-18.632,0-25.736
		c7.109-7.109,18.622-7.104,25.735,0c7.104,7.104,7.104,18.622,0,25.736C44.532,58.75,33.013,58.75,25.91,51.646z"/>
</g>
</svg>
