<?xml version="1.0" encoding="utf-8"?>
<!DOCTYPE svg PUBLIC "-//W3C//DTD SVG 1.0//EN" "http://www.w3.org/TR/2001/REC-SVG-20010904/DTD/svg10.dtd">
<svg version="1.0" xmlns="http://www.w3.org/2000/svg" xmlns:xlink="http://www.w3.org/1999/xlink" x="0px" y="0px" width="96px"
	 height="96px" viewBox="0 0 96 96" enable-background="new 0 0 96 96" xml:space="preserve">
<g id="_x31_0_device_access_add_alarm">
	<g display="inline">
		<path fill-rule="evenodd" clip-rule="evenodd" fill="#333333" d="M59.699,30.311l2.951-1.057c-2.383-5.942-7-10.737-12.82-13.355
			l-1.066,2.968C53.709,21.159,57.641,25.25,59.699,30.311z"/>
		<path fill-rule="evenodd" clip-rule="evenodd" fill="#333333" d="M30.671,18.866l-1.062-2.968
			c-5.927,2.664-10.6,7.591-12.94,13.686l2.951,1.056C21.641,25.429,25.623,21.204,30.671,18.866z"/>
		<polygon fill-rule="evenodd" clip-rule="evenodd" fill="#333333" points="66.23,62.644 66.23,49.342 62.066,49.342 62.066,62.644 
			48.964,62.644 48.964,66.806 62.066,66.806 62.066,80.102 66.23,80.102 66.23,66.806 79.332,66.806 79.332,62.644 		"/>
		<path fill="#333333" d="M39.716,19.993c-10.188,0-18.443,8.257-18.443,18.444c0,10.188,8.255,18.444,18.443,18.444
			c10.188,0,18.447-8.257,18.447-18.444C58.163,28.25,49.904,19.993,39.716,19.993z M39.716,53.923
			c-8.551,0-15.484-6.933-15.484-15.486c0-8.551,6.934-15.485,15.484-15.485c8.554,0,15.487,6.935,15.487,15.485
			C55.203,46.99,48.271,53.923,39.716,53.923z"/>
		<polygon fill="#333333" points="40.029,25.942 38.071,25.942 37.396,38.545 37.572,39.863 46.998,48.25 48.487,46.723 
			40.692,38.368 		"/>
	</g>
</g>
</svg>
