<?xml version="1.0" encoding="utf-8"?>
<!DOCTYPE svg PUBLIC "-//W3C//DTD SVG 1.0//EN" "http://www.w3.org/TR/2001/REC-SVG-20010904/DTD/svg10.dtd">
<svg version="1.0" xmlns="http://www.w3.org/2000/svg" xmlns:xlink="http://www.w3.org/1999/xlink" x="0px" y="0px" width="96px"
	 height="96px" viewBox="0 0 96 96" enable-background="new 0 0 96 96" xml:space="preserve">
<g id="_x39__av_add_to_queue">
	<g display="inline">
		<polygon fill="#333333" points="29.207,34.452 66.797,34.452 66.797,61.554 72.081,61.554 72.081,29.17 29.207,29.17 		"/>
		<polygon fill="#333333" points="50.34,18.603 50.34,23.884 77.363,23.884 77.363,48.347 82.64,48.347 82.64,18.603 		"/>
		<path fill="#333333" d="M13.36,77.397h48.152v-37.67H13.36V77.397z M24.744,60.124v-3.348v-0.358h0.357h10.184V46.075V45.72h0.358
			h3.345h0.36v0.355v10.343h10.183h0.358v0.358v3.348v0.357h-0.358H39.349v10.338v0.356h-0.36h-3.345h-0.358v-0.356V60.481H25.102
			h-0.357V60.124z"/>
	</g>
</g>
</svg>
