<?xml version="1.0" encoding="utf-8"?>
<!DOCTYPE svg PUBLIC "-//W3C//DTD SVG 1.0//EN" "http://www.w3.org/TR/2001/REC-SVG-20010904/DTD/svg10.dtd">
<svg version="1.0" xmlns="http://www.w3.org/2000/svg" xmlns:xlink="http://www.w3.org/1999/xlink" x="0px" y="0px" width="96px"
	 height="96px" viewBox="0 0 96 96" enable-background="new 0 0 96 96" xml:space="preserve">
<g id="_x39__av_make_available_offline">
	<path display="inline" fill="#333333" d="M34.795,58.398c-7.098-7.576-10.75-15.39-8.219-17.92l2.117-2.124
		c1.99-1.984,7.233-0.156,13.051,4.146L54.889,29.36c-3.295-4.373-4.854-8.014-3.653-9.214l2.681-2.685
		c1.746-1.742,8.674,2.351,15.471,9.149c6.799,6.799,10.896,13.727,9.15,15.473l-2.68,2.683c-1.205,1.197-4.847-0.359-9.215-3.655
		l-13.141,13.14c4.304,5.825,6.131,11.065,4.146,13.052l-2.122,2.122c-2.535,2.532-10.35-1.121-17.926-8.217l-7.585,7.584
		L17.998,78.939l-0.938-0.934l10.148-12.023L34.795,58.398z"/>
</g>
</svg>
