<?xml version="1.0" encoding="utf-8"?>
<!DOCTYPE svg PUBLIC "-//W3C//DTD SVG 1.0//EN" "http://www.w3.org/TR/2001/REC-SVG-20010904/DTD/svg10.dtd">
<svg version="1.0" xmlns="http://www.w3.org/2000/svg" xmlns:xlink="http://www.w3.org/1999/xlink" x="0px" y="0px" width="96px"
	 height="96px" viewBox="0 0 96 96" enable-background="new 0 0 96 96" xml:space="preserve">
<g id="_x39__av_replay">
	<path display="inline" fill="#333333" d="M78.552,42.812c-1.498-3.924-3.84-7.529-6.619-10.604
		c-2.922-3.129-6.338-5.606-10.176-7.377c-3.303-1.538-6.949-2.44-10.592-2.807V8.792L24.726,26.517l26.439,17.679V31.312
		c2.196,0.328,4.562,0.951,6.562,1.882c2.7,1.251,5.197,3.053,7.223,5.224c2.094,2.34,3.727,4.893,4.775,7.627
		c1.114,2.914,1.625,5.988,1.514,9.142c-0.109,3.147-0.828,6.184-2.146,9.016c-1.266,2.732-3.023,5.17-5.236,7.234
		c-0.439,0.408-0.877,0.791-1.328,1.152c-1.908,1.533-4.025,2.752-6.281,3.614c-2.916,1.11-5.988,1.624-9.142,1.515
		c-3.163-0.113-6.198-0.828-9.026-2.144c-2.723-1.269-5.17-3.038-7.258-5.272c-0.387-0.412-0.762-0.852-1.137-1.31
		c-1.514-1.884-2.729-3.999-3.598-6.272c-1.11-2.916-1.623-5.99-1.521-9.146c0.111-3.155,0.837-6.181,2.148-9.014l-8.387-3.816
		c-1.85,3.975-2.859,8.223-3.014,12.632c-0.146,4.42,0.572,8.729,2.141,12.82c1.203,3.162,2.898,6.115,5.033,8.771l0.1,0.12
		c0.477,0.594,0.982,1.174,1.506,1.731c2.893,3.098,6.307,5.573,10.148,7.359c3.979,1.844,8.232,2.859,12.639,3.01
		s8.715-0.562,12.807-2.133c3.18-1.219,6.139-2.921,8.798-5.061c0.628-0.504,1.233-1.027,1.825-1.58
		c3.107-2.9,5.584-6.312,7.371-10.144c1.842-3.976,2.854-8.228,3.004-12.642C80.839,51.226,80.12,46.911,78.552,42.812z"/>
</g>
</svg>
