<?xml version="1.0" encoding="utf-8"?>
<!DOCTYPE svg PUBLIC "-//W3C//DTD SVG 1.0//EN" "http://www.w3.org/TR/2001/REC-SVG-20010904/DTD/svg10.dtd">
<svg version="1.0" xmlns="http://www.w3.org/2000/svg" xmlns:xlink="http://www.w3.org/1999/xlink" x="0px" y="0px" width="96px"
	 height="96px" viewBox="0 0 96 96" enable-background="new 0 0 96 96" xml:space="preserve">
<g id="_x39__av_return_from_full_screen">
	<g display="inline">
		<polygon fill="#333333" points="51.83,44.151 55.094,22.966 60.684,28.558 72.093,17.15 78.775,23.837 67.368,35.244 
			73.018,40.89 		"/>
		<polygon fill="#333333" points="44.172,51.85 40.908,73.033 35.318,67.441 23.908,78.85 17.222,72.166 28.631,60.758 
			22.985,55.109 		"/>
		<polygon fill="#333333" points="44.168,44.101 22.982,40.835 28.572,35.241 17.166,23.833 23.851,17.15 35.26,28.558 
			40.906,22.911 		"/>
		<polygon fill="#333333" points="51.83,51.902 73.018,55.168 67.426,60.758 78.834,72.166 72.146,78.85 60.738,67.441 
			55.094,73.088 		"/>
	</g>
</g>
</svg>
