<?xml version="1.0" encoding="utf-8"?>
<!DOCTYPE svg PUBLIC "-//W3C//DTD SVG 1.0//EN" "http://www.w3.org/TR/2001/REC-SVG-20010904/DTD/svg10.dtd">
<svg version="1.0" xmlns="http://www.w3.org/2000/svg" xmlns:xlink="http://www.w3.org/1999/xlink" x="0px" y="0px" width="96px"
	 height="96px" viewBox="0 0 96 96" enable-background="new 0 0 96 96" xml:space="preserve">
<g id="_x39__av_repeat">
	<g display="inline">
		<path fill="#333333" d="M77.19,46.644c0.064,0.509,0.107,1.024,0.107,1.554c0,7.301-5.942,13.242-13.244,13.242H28.288V49.474
			L9.634,64.552l18.654,15.073V68.449h35.766c11.17,0,20.255-9.083,20.255-20.252c0-2.256-0.381-4.479-1.129-6.625L77.19,46.644z"/>
		<path fill="#333333" d="M18.805,49.358c-0.064-0.508-0.102-1.027-0.102-1.554c0-7.301,5.942-13.245,13.243-13.245h35.767v11.966
			L86.366,31.45L67.713,16.375V27.55H31.946c-11.169,0-20.256,9.086-20.256,20.255c0,2.253,0.377,4.477,1.129,6.625L18.805,49.358z"
			/>
	</g>
</g>
</svg>
