<?xml version="1.0" encoding="utf-8"?>
<!DOCTYPE svg PUBLIC "-//W3C//DTD SVG 1.0//EN" "http://www.w3.org/TR/2001/REC-SVG-20010904/DTD/svg10.dtd">
<svg version="1.0" xmlns="http://www.w3.org/2000/svg" xmlns:xlink="http://www.w3.org/1999/xlink" x="0px" y="0px" width="96px"
	 height="96px" viewBox="0 0 96 96" enable-background="new 0 0 96 96" xml:space="preserve">
<g id="_x39__av_shuffle">
	<g display="inline">
		<path fill="#333333" d="M11.4,33.287c4.7,0.011,9.164,1.079,13.641,3.26c3.926,1.931,7.828,4.739,11.61,8.354
			c0.35-0.38,0.697-0.768,1.043-1.158c1.493-1.712,3.084-3.385,4.738-4.985c-3.791-3.334-7.635-5.938-11.734-7.951
			c-5.963-2.947-12.55-4.503-19.117-4.503c-0.634,0-1.256,0.025-1.865,0.055L8.49,26.414v7.002l1.354-0.082
			C10.362,33.309,10.878,33.287,11.4,33.287z"/>
		<path fill="#333333" d="M65.191,37.482c1.225-0.598,2.444-1.105,3.664-1.537v10.58L87.51,31.45L68.855,16.375v12
			c-3.205,0.758-6.343,1.883-9.323,3.358c-6.622,3.263-12.696,8.119-18.578,14.85c-5.119,5.87-10.473,10.201-15.916,12.873
			c-4.474,2.185-8.938,3.252-13.64,3.263c-0.521,0-1.04-0.021-1.556-0.054L8.49,62.587v7.006l1.224,0.057
			c0.611,0.025,1.233,0.054,1.867,0.054h0.068c6.488,0,13.074-1.555,19.049-4.502c6.617-3.256,12.69-8.113,18.572-14.851
			C54.382,44.481,59.74,40.15,65.191,37.482z"/>
		<path fill="#333333" d="M68.855,60.06c-1.221-0.433-2.44-0.939-3.666-1.538c-3.588-1.763-7.18-4.277-10.683-7.486
			c-0.659,0.691-1.319,1.404-1.975,2.156c-1.183,1.354-2.431,2.693-3.726,3.986c3.473,2.926,6.99,5.251,10.726,7.092
			c2.982,1.471,6.12,2.596,9.323,3.354v12.002L87.51,64.549L68.855,49.474V60.06z"/>
	</g>
</g>
</svg>
