<?xml version="1.0" encoding="utf-8"?>
<!DOCTYPE svg PUBLIC "-//W3C//DTD SVG 1.0//EN" "http://www.w3.org/TR/2001/REC-SVG-20010904/DTD/svg10.dtd">
<svg version="1.0" xmlns="http://www.w3.org/2000/svg" xmlns:xlink="http://www.w3.org/1999/xlink" x="0px" y="0px" width="96px"
	 height="96px" viewBox="0 0 96 96" enable-background="new 0 0 96 96" xml:space="preserve">
<g id="_x34__collections_new_label">
	<g display="inline">
		<polygon fill="#333333" points="66.773,66.646 66.773,53.345 62.613,53.345 62.613,66.646 49.511,66.646 49.511,70.808 
			62.613,70.808 62.613,84.104 66.773,84.104 66.773,70.808 79.879,70.808 79.879,66.646 		"/>
		<path fill="#333333" d="M44.136,15.229L16.166,42.97l-0.045,20.604l20.602-0.049L64.695,35.78L44.136,15.229z M22.699,59.259
			c-1.303,0-2.357-1.056-2.357-2.356c0-1.302,1.055-2.357,2.357-2.357s2.357,1.056,2.357,2.357
			C25.056,58.203,24.002,59.259,22.699,59.259z M24.573,46.083l19.209-19.21l2.712,2.712L27.285,48.798L24.573,46.083z
			 M33.312,54.822L30.6,52.109l19.092-19.095l2.713,2.714L33.312,54.822z"/>
		<polygon fill="#333333" points="32.952,11.896 20.459,34.909 40.51,15.49 		"/>
	</g>
</g>
</svg>
