<?xml version="1.0" encoding="utf-8"?>
<!DOCTYPE svg PUBLIC "-//W3C//DTD SVG 1.0//EN" "http://www.w3.org/TR/2001/REC-SVG-20010904/DTD/svg10.dtd">
<svg version="1.0" xmlns="http://www.w3.org/2000/svg" xmlns:xlink="http://www.w3.org/1999/xlink" x="0px" y="0px" width="96px"
	 height="96px" viewBox="0 0 96 96" enable-background="new 0 0 96 96" xml:space="preserve">
<g id="_x34__collections_cloud">
	<path display="inline" fill-rule="evenodd" clip-rule="evenodd" fill="#333333" d="M73.648,50.42
		c-0.518-6.998-6.348-12.52-13.477-12.52c-2.758,0-5.318,0.828-7.461,2.247c-1.539-6.01-6.978-10.462-13.471-10.462
		c-7.687,0-13.921,6.234-13.921,13.922c0,0.566,0.045,1.121,0.109,1.674c-0.078-0.004-0.158-0.014-0.238-0.014
		c-5.812,0-10.524,4.713-10.524,10.525c0,5.634,4.436,10.223,10.001,10.496v0.025h48.388v-0.033
		c0.107,0.004,0.209,0.033,0.316,0.033c4.4,0,7.963-3.566,7.963-7.963C81.334,54.048,77.918,50.566,73.648,50.42z"/>
</g>
</svg>
