<?xml version="1.0" encoding="utf-8"?>
<!DOCTYPE svg PUBLIC "-//W3C//DTD SVG 1.0//EN" "http://www.w3.org/TR/2001/REC-SVG-20010904/DTD/svg10.dtd">
<svg version="1.0" xmlns="http://www.w3.org/2000/svg" xmlns:xlink="http://www.w3.org/1999/xlink" x="0px" y="0px" width="96px"
	 height="96px" viewBox="0 0 96 96" enable-background="new 0 0 96 96" xml:space="preserve">
<g id="_x34__collections_labels">
	<g display="inline">
		<path fill="#333333" d="M52.992,17.864L15.541,55.01L15.48,82.598l27.584-0.064L80.52,45.38L52.992,17.864z M24.288,76.82
			c-1.743,0-3.154-1.412-3.154-3.157c0-1.741,1.411-3.155,3.154-3.155s3.157,1.414,3.157,3.155
			C27.445,75.408,26.031,76.82,24.288,76.82z M26.797,59.178L52.52,33.455l3.629,3.631L30.428,62.812L26.797,59.178z M38.5,70.88
			l-3.633-3.633L60.43,41.68l3.633,3.634L38.5,70.88z"/>
		<polygon fill="#333333" points="38.016,13.402 21.288,44.215 48.135,18.214 		"/>
	</g>
</g>
</svg>
