<?xml version="1.0" encoding="utf-8"?>
<!DOCTYPE svg PUBLIC "-//W3C//DTD SVG 1.0//EN" "http://www.w3.org/TR/2001/REC-SVG-20010904/DTD/svg10.dtd">
<svg version="1.0" xmlns="http://www.w3.org/2000/svg" xmlns:xlink="http://www.w3.org/1999/xlink" x="0px" y="0px" width="96px"
	 height="96px" viewBox="0 0 96 96" enable-background="new 0 0 96 96" xml:space="preserve">
<g id="_x35__content_edit">
	<g display="inline">
		<path fill="#333333" d="M46.763,31.234L23.248,54.982c0,0,2.028,1.913,7.24,1.683c1.114,2.374,2.169,5.169,8.257,8.029
			c-0.246,4.967,2.145,7.755,2.145,7.755l23.531-23.726c-0.286-3.237-2.708-7.268-6.549-11.065
			C52.619,32.453,48.224,31.439,46.763,31.234z"/>
		<path fill="#333333" d="M80.781,14.252c-6.904-5.659-11.676-4-14.107-1.658c-0.845,0.817-3.516,2.968-5.469,4.533
			c2.199,0.141,6.617,1.09,11.468,5.891c4.825,4.777,5.746,8.861,5.799,11.141c1.641-2.121,4.216-5.442,4.614-5.845
			C85.743,25.607,87.686,19.91,80.781,14.252z"/>
		<path fill="#333333" d="M27.046,59.498c-4.659,0.012-5.748-1.031-5.748-1.031l-10.818,27.11l27.005-11.218
			c0,0-2.144-4.243-2.089-6.516C33.509,67.244,28.562,64.237,27.046,59.498z"/>
		<path fill="#333333" d="M58.169,19.734l-2.681,2.638c0,0,5.119,0.833,11.186,6.846c3.807,3.78,5.862,7.778,6.229,10.571
			l2.56-2.553c0,0,0.891-4.625-5.689-11.201C63.309,19.57,58.169,19.734,58.169,19.734z"/>
		<path fill="#333333" d="M53.111,25.66l-2.562,2.526c0,0,4.903,0.797,10.706,6.559c3.646,3.614,5.615,7.439,5.969,10.116
			l2.447-2.45c0,0,0.852-4.425-5.447-10.722C58.04,25.502,53.111,25.66,53.111,25.66z"/>
	</g>
</g>
</svg>
