<?xml version="1.0" encoding="utf-8"?>
<!DOCTYPE svg PUBLIC "-//W3C//DTD SVG 1.0//EN" "http://www.w3.org/TR/2001/REC-SVG-20010904/DTD/svg10.dtd">
<svg version="1.0" xmlns="http://www.w3.org/2000/svg" xmlns:xlink="http://www.w3.org/1999/xlink" x="0px" y="0px" width="96px"
	 height="96px" viewBox="0 0 96 96" enable-background="new 0 0 96 96" xml:space="preserve">
<g id="_x35__content_new_attachment">
	<g display="inline">
		<path fill="#333333" d="M26.989,71.555h-0.004c-3.899,0-7.562-1.518-10.314-4.273c-2.754-2.758-4.276-6.42-4.276-10.32
			c0-3.896,1.516-7.557,4.271-10.314l32.468-32.465c1.993-1.996,4.589-2.979,7.315-2.748c2.514,0.205,5.004,1.424,7.005,3.424
			c4.134,4.139,4.442,10.564,0.681,14.326l-27.248,27.25c-2.289,2.288-5.844,2.058-8.469-0.555c-2.486-2.49-2.735-6.291-0.559-8.473
			l22.289-22.287l2.971,2.969L30.832,50.375c-0.467,0.468-0.329,1.648,0.556,2.535c0.253,0.254,1.591,1.497,2.526,0.553
			l27.252-27.248c2.121-2.125,1.816-5.886-0.681-8.389c-1.3-1.299-2.855-2.082-4.376-2.205c-1.488-0.133-2.885,0.406-4.006,1.53
			L19.636,49.615c-1.965,1.963-3.042,4.574-3.042,7.346c0,2.777,1.082,5.386,3.047,7.35c1.961,1.961,4.568,3.043,7.345,3.043l0,0
			c2.78,0,5.39-1.078,7.349-3.043l28.104-28.098l2.969,2.969l-28.104,28.1C34.549,70.037,30.885,71.555,26.989,71.555z"/>
		<g>
			<g>
				<polygon fill="#333333" points="70.501,67.141 70.501,53.84 66.34,53.84 66.34,67.141 53.237,67.141 53.237,71.303 
					66.34,71.303 66.34,84.6 70.501,84.6 70.501,71.303 83.605,71.303 83.605,67.141 				"/>
			</g>
		</g>
	</g>
</g>
</svg>
