<?xml version="1.0" encoding="utf-8"?>
<!DOCTYPE svg PUBLIC "-//W3C//DTD SVG 1.0//EN" "http://www.w3.org/TR/2001/REC-SVG-20010904/DTD/svg10.dtd">
<svg version="1.0" xmlns="http://www.w3.org/2000/svg" xmlns:xlink="http://www.w3.org/1999/xlink" x="0px" y="0px" width="96px"
	 height="96px" viewBox="0 0 96 96" enable-background="new 0 0 96 96" xml:space="preserve">
<g id="_x35__content_cut">
	<g display="inline">
		<path fill="#333333" d="M78.76,61.816c0.781,0.569,1.25,1.489,1.25,2.459c0,0.65-0.199,1.271-0.59,1.801
			c-0.48,0.66-1.189,1.09-2,1.209c-0.799,0.131-1.609-0.069-2.27-0.549c-0.779-0.57-1.24-1.5-1.24-2.471c0-0.65,0.199-1.27,0.59-1.8
			C75.49,61.115,77.4,60.816,78.76,61.816z M57.01,48.256c0-1.32,1.07-2.391,2.391-2.391c1.311,0,2.379,1.07,2.379,2.391
			c0,1.311-1.068,2.38-2.379,2.38C58.08,50.636,57.01,49.566,57.01,48.256z M77.42,29.216c0.811,0.13,1.52,0.56,2,1.21
			c0.391,0.529,0.59,1.15,0.59,1.8c0,0.97-0.469,1.9-1.25,2.47c-0.66,0.48-1.459,0.681-2.27,0.551
			c-0.801-0.12-1.51-0.551-1.99-1.211c-0.391-0.529-0.59-1.149-0.59-1.799c0-0.971,0.461-1.891,1.24-2.461
			C75.811,29.285,76.621,29.096,77.42,29.216z M72.779,26.535c-1.059,0.771-1.959,1.98-2.389,2.83c-0.221,0.44-0.52,0.971-0.9,1.631
			c-0.33,0.59-0.73,1.289-1.199,2.149c-2.451,4.5-4.941,7.431-4.961,7.45s-1.391,1.59-2.91,2.95c-8.5-3.65-22.42-9.591-23.76-9.931
			c-2-0.5-3.91,0.91-3.99,0.971l-0.879,0.66l0.939,0.57l20.49,12.439l-20.49,12.43l-0.939,0.57l0.879,0.66
			c0.08,0.06,1.99,1.47,3.99,0.97c1.33-0.33,15.26-6.28,23.76-9.931c1.52,1.371,2.891,2.94,2.9,2.951
			c0.029,0.029,2.52,2.949,4.971,7.459c0.469,0.86,0.869,1.561,1.209,2.15c0.371,0.66,0.67,1.18,0.891,1.62
			c0.43,0.851,1.33,2.06,2.389,2.84c3.141,2.3,7.58,1.62,9.881-1.521c0.891-1.219,1.359-2.649,1.359-4.159
			c0-2.229-1.07-4.36-2.859-5.7c-0.77-0.57-1.65-0.98-2.48-1.17c-0.67-0.24-1.18-0.32-1.719-0.41c-0.801-0.14-1.701-0.29-3.521-1.02
			c-3.539-1.42-6.5-4.051-6.549-4.101c-0.861-0.72-1.701-1.979-2.441-3.64c0.74-1.67,1.58-2.93,2.461-3.67
			c0.029-0.02,2.98-2.65,6.529-4.07c1.82-0.73,2.721-0.89,3.521-1.02c0.539-0.09,1.049-0.18,1.648-0.391
			c0.9-0.22,1.781-0.63,2.57-1.199c1.781-1.34,2.84-3.461,2.84-5.69c0-1.511-0.469-2.95-1.359-4.16
			C80.35,24.916,75.92,24.226,72.779,26.535z"/>
		<polygon fill="#333333" points="59.98,78 17.98,78 17.98,18 59.98,18 59.98,30 65.98,30 65.98,12 11.98,12 11.98,84 59.98,84 
			65.98,84 65.98,66 59.98,66 		"/>
	</g>
</g>
</svg>
