<?xml version="1.0" encoding="utf-8"?>
<!DOCTYPE svg PUBLIC "-//W3C//DTD SVG 1.0//EN" "http://www.w3.org/TR/2001/REC-SVG-20010904/DTD/svg10.dtd">
<svg version="1.0" xmlns="http://www.w3.org/2000/svg" xmlns:xlink="http://www.w3.org/1999/xlink" x="0px" y="0px" width="96px"
	 height="96px" viewBox="0 0 96 96" enable-background="new 0 0 96 96" xml:space="preserve">
<g id="_x35__content_select_all">
	<path display="inline" fill-rule="evenodd" clip-rule="evenodd" fill="#333333" d="M68.71,84h-3.771v-4h3.771V84z M61.18,84h-3.77
		v-4h3.77V84z M53.65,84H49.88v-4h3.771V84z M38.59,84h-3.77v-4h3.77V84z M31.061,84H27.29v-4h3.771V84z M45,69H27V51h18V69z M12,12
		h4v4h-4V12z M12,19.76h4v3.77h-4V19.76z M12,27.29h4v3.77h-4V27.29z M12,34.82h4v3.77h-4V34.82z M12,42.35h4v3.77h-4V42.35z
		 M12,49.88h4v3.771h-4V49.88z M12,57.41h4v3.77h-4V57.41z M12,64.939h4v3.771h-4V64.939z M12,72.471h4v3.77h-4V72.471z M12,80h4v4
		h-4V80z M19.76,12h3.77v4h-3.77V12z M19.76,80h3.77v4h-3.77V80z M45,45H27V27h18V45z M27.29,12h3.771v4H27.29V12z M34.82,12h3.77v4
		h-3.77V12z M42.35,12h3.771v4H42.35V12z M42.35,80h3.771v4H42.35V80z M49.88,12h3.771v4H49.88V12z M57.41,12h3.77v4h-3.77V12z
		 M64.939,12h3.771v4h-3.771V12z M51,27h18v18H51V27z M51,51h18v18H51V51z M72.471,12h3.77v4h-3.77V12z M72.471,80h3.77v4h-3.77V80z
		 M80,12h4v4h-4V12z M80,19.76h4v3.77h-4V19.76z M80,27.29h4v3.77h-4V27.29z M80,34.82h4v3.77h-4V34.82z M80,42.35h4v3.77h-4V42.35z
		 M80,49.88h4v3.771h-4V49.88z M80,57.41h4v3.77h-4V57.41z M80,64.939h4v3.771h-4V64.939z M80,72.471h4v3.77h-4V72.471z M80,84v-4h4
		v4H80z"/>
</g>
</svg>
