<?xml version="1.0" encoding="utf-8"?>
<!DOCTYPE svg PUBLIC "-//W3C//DTD SVG 1.0//EN" "http://www.w3.org/TR/2001/REC-SVG-20010904/DTD/svg10.dtd">
<svg version="1.0" xmlns="http://www.w3.org/2000/svg" xmlns:xlink="http://www.w3.org/1999/xlink" x="0px" y="0px" width="96px"
	 height="96px" viewBox="0 0 96 96" enable-background="new 0 0 96 96" xml:space="preserve">
<g id="_x35__content_save">
	<path display="inline" fill="#333333" d="M55.129,34.895H41.523V17.406h13.605V34.895z M64.844,57.976v-3.921H29.86v3.921H64.844
		L64.844,57.976z M64.844,68.978v-3.923H29.86v3.923H64.844L64.844,68.978z M80.877,28.215v51.047c0,1.082-0.877,1.959-1.959,1.959
		H17.084c-1.085,0-1.961-0.877-1.961-1.959V16.74c0-1.083,0.876-1.961,1.961-1.961h8.08v23.756h35.631V14.779h6.652L80.877,28.215z
		 M70.836,45.592H25.164v31.093h45.672V45.592z"/>
</g>
</svg>
