<?xml version="1.0" encoding="utf-8"?>
<!DOCTYPE svg PUBLIC "-//W3C//DTD SVG 1.0//EN" "http://www.w3.org/TR/2001/REC-SVG-20010904/DTD/svg10.dtd">
<svg version="1.0" xmlns="http://www.w3.org/2000/svg" xmlns:xlink="http://www.w3.org/1999/xlink" x="0px" y="0px" width="96px"
	 height="96px" viewBox="0 0 96 96" enable-background="new 0 0 96 96" xml:space="preserve">
<g id="_x35__content_discard">
	<g display="inline">
		<path fill="#333333" d="M68.917,41.842c-0.046-0.281-0.218-0.557-0.476-0.82c-2.079,2.112-10.444,2.462-20.445,2.462
			s-18.358-0.35-20.446-2.462c-0.257,0.264-0.417,0.539-0.476,0.82h-0.02l0.006,0.152c0,0.018-0.006,0.035-0.006,0.053
			c0,0.041,0.012,0.078,0.018,0.117L28.7,75.518h0.004c0.145,2.615,3.139,6.568,19.292,6.568c16.155,0,19.151-3.953,19.292-6.568
			H67.3l1.63-33.354c0.003-0.039,0.016-0.076,0.016-0.117c0-0.018-0.013-0.036-0.013-0.053l0.013-0.152H68.917z"/>
		<path fill="#333333" d="M57.95,24.386v-7.875c0-1.422-1.164-2.597-2.595-2.597H39.77c-1.421,0-2.591,1.174-2.591,2.597v7.965
			c-7.705,0.874-12.98,2.644-12.98,4.694v3.893c0,0.799,0.809,1.559,2.26,2.244c3.801,1.786,12.018,3.024,21.538,3.024
			c9.528,0,17.741-1.238,21.547-3.024c1.442-0.686,2.259-1.445,2.259-2.244V29.17C71.802,27.047,66.12,25.221,57.95,24.386z
			 M42.161,24.06l-0.657,0.041v-3.262c0-1.426,0.199-2.594,0.435-2.594c0.242,0,1.604,0,3.031,0h5.193c1.422,0,2.789,0,3.027,0
			c0.239,0,0.435,1.168,0.435,2.594v3.209c-1.806-0.094-3.685-0.152-5.629-0.152C45.981,23.896,44.024,23.954,42.161,24.06z"/>
	</g>
</g>
</svg>
