<?xml version="1.0" encoding="utf-8"?>
<!DOCTYPE svg PUBLIC "-//W3C//DTD SVG 1.0//EN" "http://www.w3.org/TR/2001/REC-SVG-20010904/DTD/svg10.dtd">
<svg version="1.0" xmlns="http://www.w3.org/2000/svg" xmlns:xlink="http://www.w3.org/1999/xlink" x="0px" y="0px" width="96px"
	 height="96px" viewBox="0 0 96 96" enable-background="new 0 0 96 96" xml:space="preserve">
<g id="_x35__content_read">
	<g display="inline">
		<g>
			<path fill="#333333" d="M47.937,12.842l-35.94,17.865v10.367h6.022v-6.957h59.998v6.957h5.987V30.707L47.937,12.842z
				 M47.938,68.121c-5.473,0-9.925-4.324-10.148-9.742L11.996,45.555v37.604h72.008V45.555L58.088,58.377
				C57.862,63.797,53.412,68.121,47.938,68.121z M48,65.143c3.073,0,5.546-2.246,6.476-4.969c0.238-0.699,0.528-1.246,0.528-2.035
				c0-3.863-3.142-7.006-7.004-7.006c-3.863,0-7.004,3.143-7.004,7.006c0,0.789,0.168,1.338,0.403,2.037
				C42.331,62.896,44.927,65.143,48,65.143z"/>
		</g>
	</g>
</g>
</svg>
