<?xml version="1.0" encoding="utf-8"?>
<!DOCTYPE svg PUBLIC "-//W3C//DTD SVG 1.0//EN" "http://www.w3.org/TR/2001/REC-SVG-20010904/DTD/svg10.dtd">
<svg version="1.0" xmlns="http://www.w3.org/2000/svg" xmlns:xlink="http://www.w3.org/1999/xlink" x="0px" y="0px" width="96px"
	 height="96px" viewBox="0 0 96 96" enable-background="new 0 0 96 96" xml:space="preserve">
<g id="_x31_0_device_access_switch_video">
	<path display="inline" fill-rule="evenodd" clip-rule="evenodd" fill="#333333" d="M10.46,53.365c0,2.96,8.439,7.94,23.53,9.79
		l0.029-5.631l12.91,9.07l-13.01,7.93l0.05-5.77c-14.409-1.72-27.82-6.07-27.82-15.39c0-3.12,4.14-6.27,10.681-7.85l0.06,2.31
		C12.74,49.636,10.46,51.665,10.46,53.365z M21.569,47.535l0.021-20.78c0-2.92,2.37-5.279,5.29-5.279h34.61l-0.15,30.99
		l-34.59-0.051C23.83,52.415,21.569,50.455,21.569,47.535z M64.5,43.415v-13l10.38-5.939h2.62l-0.061,24.75l-2.4,0.049L64.5,43.415z
		 M53.34,69.556l-0.04-6.4c21.22-0.12,32.29-5.76,32.29-9.92c0-1.4-1.58-3.04-4.5-4.6l-0.051-2.351
		c5.011,1.65,8.812,3.931,8.812,6.95C89.851,62.345,73.789,69.445,53.34,69.556z"/>
</g>
</svg>
