<?xml version="1.0" encoding="utf-8"?>
<!DOCTYPE svg PUBLIC "-//W3C//DTD SVG 1.0//EN" "http://www.w3.org/TR/2001/REC-SVG-20010904/DTD/svg10.dtd">
<svg version="1.0" xmlns="http://www.w3.org/2000/svg" xmlns:xlink="http://www.w3.org/1999/xlink" x="0px" y="0px" width="96px"
	 height="96px" viewBox="0 0 96 96" enable-background="new 0 0 96 96" xml:space="preserve">
<g id="_x31_0_device_access_camera">
	<g display="inline">
		<path fill="#333333" d="M60.355,51.07c0,6.84-5.543,12.386-12.379,12.386c-6.84,0-12.387-5.546-12.387-12.386
			c0-6.835,5.547-12.38,12.387-12.38C54.812,38.69,60.355,44.235,60.355,51.07z"/>
		<path fill="#333333" d="M81.607,27.451H58.759v-2.567c0-3.407,0-3.051,0-3.051h-21.31c0,0,0-0.356,0,3.051v2.567
			c0,0-2.291-0.037-4.234,0c-1.943,0.033-4.135,0.762-4.135,0.762l-14.708,4.751c0,0,0.034,2.062,0,3.537
			c-0.038,1.473,0,34.597,0,34.597c0,1.701,0,3.08,0,3.08s67.156-0.006,67.235,0c0.084,0.008,0-1.379,0-3.08V30.531
			C81.607,28.831,81.607,27.451,81.607,27.451z M47.977,69.164c-9.997,0-18.096-8.102-18.096-18.092
			c0-9.993,8.099-18.095,18.096-18.095c9.99,0,18.092,8.103,18.092,18.095C66.068,61.062,57.967,69.164,47.977,69.164z"/>
		<path fill="#333333" d="M27.922,25.881l-10.757,3.645v-4.934c0-0.525,0-0.949,0-0.949h10.757c0,0,0,0.424,0,0.949V25.881z"/>
	</g>
</g>
</svg>
