<?xml version="1.0" encoding="utf-8"?>
<!DOCTYPE svg PUBLIC "-//W3C//DTD SVG 1.0//EN" "http://www.w3.org/TR/2001/REC-SVG-20010904/DTD/svg10.dtd">
<svg version="1.0" xmlns="http://www.w3.org/2000/svg" xmlns:xlink="http://www.w3.org/1999/xlink" x="0px" y="0px" width="96px"
	 height="96px" viewBox="0 0 96 96" enable-background="new 0 0 96 96" xml:space="preserve">
<g id="_x31_0_device_access_mic_muted">
	<path fill="#333333" d="M37.087,48.498c-0.272-0.973-0.431-1.998-0.431-3.059V23.345c0-6.262,5.08-11.338,11.341-11.338
		s11.338,5.076,11.338,11.338v5.02L37.087,48.498z M59.335,45.439v-2.268L44.81,56.314c1.014,0.299,2.08,0.463,3.188,0.463
		C54.258,56.777,59.335,51.703,59.335,45.439z M47.997,64.512c-3.437,0-6.647-0.938-9.413-2.561l-5.959,5.396
		c3.36,2.408,7.301,4.061,11.581,4.676v11.982h7.854V71.982c12.674-1.963,22.371-12.914,22.371-26.139h-7.764
		C66.668,56.156,58.312,64.512,47.997,64.512z M31.157,53.865c-1.163-2.432-1.831-5.145-1.831-8.021h-7.792
		c0,4.898,1.34,9.48,3.664,13.418L31.157,53.865z M74.341,25.126l-2.924-3.23l-52.55,47.555l2.922,3.229L74.341,25.126z"/>
</g>
</svg>
