<?xml version="1.0" encoding="utf-8"?>
<!DOCTYPE svg PUBLIC "-//W3C//DTD SVG 1.0//EN" "http://www.w3.org/TR/2001/REC-SVG-20010904/DTD/svg10.dtd">
<svg version="1.0" xmlns="http://www.w3.org/2000/svg" xmlns:xlink="http://www.w3.org/1999/xlink" x="0px" y="0px" width="96px"
	 height="96px" viewBox="0 0 96 96" enable-background="new 0 0 96 96" xml:space="preserve">
<g id="_x31_0_device_access_bightness_low">
	<path display="inline" fill="#333333" d="M72.818,48.002l7.854-7.459L70.363,37.23l3.838-10.125l-10.725,1.492l-0.938-10.787
		l-9.012,5.992l-5.525-9.314l-5.523,9.314l-9.018-5.992l-0.936,10.787l-10.727-1.492l3.842,10.125l-10.312,3.312l7.854,7.459
		l-7.854,7.457l10.312,3.311l-3.842,10.125l10.727-1.488l0.936,10.787l9.018-5.994l5.523,9.312l5.525-9.312l9.012,5.994
		l0.938-10.787l10.725,1.488L70.363,58.77l10.309-3.311L72.818,48.002z M47.072,68.342v-0.096H47.07
		c-11.207,0-20.295-9.086-20.295-20.295c0-11.207,9.088-20.295,20.295-20.295h0.002l0,0c0.373,0,0.736,0.037,1.105,0.057
		c0.322,0.018,0.65,0.018,0.969,0.049c10.26,1.039,18.268,9.703,18.268,20.24C67.414,59.236,58.307,68.342,47.072,68.342z"/>
</g>
</svg>
