<?xml version="1.0" encoding="utf-8"?>
<!DOCTYPE svg PUBLIC "-//W3C//DTD SVG 1.0//EN" "http://www.w3.org/TR/2001/REC-SVG-20010904/DTD/svg10.dtd">
<svg version="1.0" xmlns="http://www.w3.org/2000/svg" xmlns:xlink="http://www.w3.org/1999/xlink" x="0px" y="0px" width="96px"
	 height="96px" viewBox="0 0 96 96" enable-background="new 0 0 96 96" xml:space="preserve">
<g id="_x31_0_device_access_volume_on">
	<g display="inline">
		<g>
			<path fill-rule="evenodd" clip-rule="evenodd" fill="#333333" d="M77.045,24.12l-3.766,2.21
				c2.959,6.814,4.529,14.345,4.529,21.846c0,7.5-1.57,15.031-4.529,21.846l3.766,2.211c3.213-7.518,4.9-15.824,4.9-24.057
				C81.945,39.929,80.258,31.636,77.045,24.12z M65.939,36.477c1.479,3.706,2.629,7.725,2.629,11.744s-1.15,8.1-2.629,11.805
				l3.822,1.328c1.781-4.377,2.959-8.621,2.959-13.327c0-4.617-1.029-9.159-2.777-13.508L65.939,36.477z M58.277,44.32
				c1.152,2.499,1.133,5.729-0.049,8.861l3.492,1.32c1.535-4.064,1.518-8.344-0.049-11.744L58.277,44.32z M47.705,12.98h-5.951
				c-1.865,0-10.29,13.161-15.672,21.887h-8.238c-2.088,0-3.789,5.83-3.789,13.134s1.701,13.132,3.789,13.132h4.435v0.047h2.96
				c5.412,8.205,14.68,21.84,16.516,21.84h5.79c3.827,0,6.702-15.76,6.702-35.094C54.246,28.59,51.521,12.98,47.705,12.98z
				 M46.648,78.256c-1.765,0-4.169-8.674-5.072-20.68c2.455-1.502,4.195-5.219,4.195-9.575c0-4.368-1.74-8.073-4.195-9.576
				c0.903-12.018,3.308-20.68,5.072-20.68c2.202,0,3.98,13.544,3.98,30.256C50.629,64.697,48.851,78.256,46.648,78.256z"/>
		</g>
	</g>
</g>
</svg>
