<?xml version="1.0" encoding="utf-8"?>
<!DOCTYPE svg PUBLIC "-//W3C//DTD SVG 1.0//EN" "http://www.w3.org/TR/2001/REC-SVG-20010904/DTD/svg10.dtd">
<svg version="1.0" xmlns="http://www.w3.org/2000/svg" xmlns:xlink="http://www.w3.org/1999/xlink" x="0px" y="0px" width="96px"
	 height="96px" viewBox="0 0 96 96" enable-background="new 0 0 96 96" xml:space="preserve">
<g id="_x31_0_device_access_location_searching">
	<g display="inline">
		<path fill="#333333" d="M83.146,45.945l-8.326,0.014c-1-13.26-11.621-23.838-24.885-24.789l-0.016-8.33l-3.977,0.007l0.014,8.333
			C32.7,22.182,22.12,32.801,21.173,46.062l-8.33,0.018l0.004,3.973l8.33-0.016C22.181,63.295,32.8,73.871,46.063,74.822
			l0.014,8.338l3.977-0.006l-0.02-8.338c13.262-1.002,23.838-11.621,24.793-24.885l8.33-0.014L83.146,45.945z M48.04,70.945
			c-12.654,0.025-22.966-10.248-22.988-22.901c-0.027-12.655,10.246-22.972,22.9-22.997c12.657-0.023,22.975,10.252,22.996,22.909
			C70.976,60.609,60.694,70.922,48.04,70.945z"/>
	</g>
</g>
</svg>
