<?xml version="1.0" encoding="utf-8"?>
<!DOCTYPE svg PUBLIC "-//W3C//DTD SVG 1.0//EN" "http://www.w3.org/TR/2001/REC-SVG-20010904/DTD/svg10.dtd">
<svg version="1.0" xmlns="http://www.w3.org/2000/svg" xmlns:xlink="http://www.w3.org/1999/xlink" x="0px" y="0px" width="96px"
	 height="96px" viewBox="0 0 96 96" enable-background="new 0 0 96 96" xml:space="preserve">
<g id="_x31_0_device_access_switch_camera">
	<g display="inline">
		<path fill-rule="evenodd" clip-rule="evenodd" fill="#333333" d="M10.46,55.365c0,2.961,8.439,7.939,23.53,9.791l0.03-5.631
			l12.91,9.07l-13.011,7.93l0.051-5.77c-14.41-1.721-27.821-6.07-27.821-15.391c0-3.119,4.141-6.27,10.681-7.851l0.061,2.312
			C12.74,51.635,10.46,53.666,10.46,55.365z M53.34,71.555l-0.039-6.398c21.22-0.121,32.289-5.762,32.289-9.922
			c0-1.398-1.58-3.039-4.5-4.6l-0.049-2.35c5.01,1.65,8.81,3.93,8.81,6.949C89.851,64.346,73.791,71.445,53.34,71.555z"/>
		<path fill-rule="evenodd" clip-rule="evenodd" fill="#333333" d="M35.5,21.995v-1.521h-7v4L35.5,21.995z M57.5,38.975
			c0-4.689-3.811-8.5-8.5-8.5s-8.5,3.811-8.5,8.5c0,4.69,3.811,8.5,8.5,8.5S57.5,43.665,57.5,38.975z M71.431,22.524h-15.14
			l0.039-3.05l-14.66,0.01l-0.05,3.051l-2.55-0.011l-12.561,4.95v26H71.48C71.53,53.484,71.431,22.524,71.431,22.524z M61.24,38.975
			c0,6.76-5.48,12.24-12.24,12.24s-12.24-5.48-12.24-12.24s5.48-12.24,12.24-12.24S61.24,32.215,61.24,38.975z"/>
	</g>
</g>
</svg>
