<?xml version="1.0" encoding="utf-8"?>
<!DOCTYPE svg PUBLIC "-//W3C//DTD SVG 1.0//EN" "http://www.w3.org/TR/2001/REC-SVG-20010904/DTD/svg10.dtd">
<svg version="1.0" xmlns="http://www.w3.org/2000/svg" xmlns:xlink="http://www.w3.org/1999/xlink" x="0px" y="0px" width="96px"
	 height="96px" viewBox="0 0 96 96" enable-background="new 0 0 96 96" xml:space="preserve">
<g id="_x31_0_device_access_location_off">
	<g display="inline">
		<polygon fill="#333333" points="58.924,39.953 59.164,39.709 56.27,36.799 47.99,45.104 39.957,37.039 39.713,36.799 
			36.812,39.709 45.094,48.008 37.055,56.068 36.812,56.311 39.713,59.221 47.99,50.916 56.025,58.977 56.27,59.221 59.168,56.311 
			50.889,48.008 		"/>
		<path fill="#333333" d="M83.145,45.945l-8.324,0.014c-1.002-13.26-11.621-23.838-24.885-24.789l-0.016-8.33l-3.979,0.007
			l0.016,8.333C32.7,22.182,22.121,32.801,21.172,46.062l-8.33,0.018l0.004,3.973l8.33-0.016
			C22.18,63.295,32.8,73.871,46.062,74.822l0.014,8.338l3.977-0.006l-0.018-8.338c13.26-1.002,23.836-11.621,24.791-24.885
			l8.332-0.014L83.145,45.945z M48.039,70.945c-12.654,0.025-22.965-10.248-22.988-22.901
			c-0.027-12.655,10.248-22.972,22.901-22.997c12.657-0.023,22.974,10.252,22.997,22.909C70.977,60.609,60.693,70.922,48.039,70.945
			z"/>
	</g>
</g>
</svg>
