<?xml version="1.0" encoding="utf-8"?>
<!DOCTYPE svg PUBLIC "-//W3C//DTD SVG 1.0//EN" "http://www.w3.org/TR/2001/REC-SVG-20010904/DTD/svg10.dtd">
<svg version="1.0" xmlns="http://www.w3.org/2000/svg" xmlns:xlink="http://www.w3.org/1999/xlink" x="0px" y="0px" width="96px"
	 height="96px" viewBox="0 0 96 96" enable-background="new 0 0 96 96" xml:space="preserve">
<g id="_x31_0_device_access_brightness_medium">
	<path display="inline" fill="#333333" d="M72.818,48.002l7.854-7.458L70.364,37.23l3.837-10.125l-10.726,1.491l-0.937-10.786
		l-9.014,5.993l-5.523-9.315l-5.522,9.315l-9.019-5.993l-0.937,10.786L21.8,27.105l3.841,10.125l-10.312,3.313l7.854,7.458
		l-7.854,7.458l10.312,3.311L21.8,68.895l10.725-1.488l0.937,10.787l9.019-5.993l5.522,9.312l5.523-9.312l9.014,5.993l0.937-10.787
		l10.726,1.488l-3.837-10.124l10.308-3.311L72.818,48.002z M47.07,68.342V27.656c11.236,0,20.342,9.109,20.342,20.346
		C67.412,59.236,58.307,68.342,47.07,68.342z"/>
</g>
</svg>
