<?xml version="1.0" encoding="utf-8"?>
<!DOCTYPE svg PUBLIC "-//W3C//DTD SVG 1.0//EN" "http://www.w3.org/TR/2001/REC-SVG-20010904/DTD/svg10.dtd">
<svg version="1.0" xmlns="http://www.w3.org/2000/svg" xmlns:xlink="http://www.w3.org/1999/xlink" x="0px" y="0px" width="96px"
	 height="96px" viewBox="0 0 96 96" enable-background="new 0 0 96 96" xml:space="preserve">
<g id="_x31_0_device_access_bluetooth_searching">
	<g display="inline">
		<g>
			<path fill="#333333" d="M32.001,13.135v31.014L18.844,31.932l-3.096,3.336L29.465,48L15.748,60.736l3.096,3.332l13.157-12.212
				v31.009l21.678-21.221l-13.644-15.16l13.644-12.127L32.001,13.135z M46.858,61.645l-9.097,9.179V51.791L46.858,61.645z
				 M37.762,41.938V25.177l9.097,9.181L37.762,41.938z M75.353,24.05l-3.769,2.21c2.961,6.813,4.53,14.346,4.53,21.847
				s-1.569,15.031-4.53,21.847l3.769,2.21c3.212-7.519,4.899-15.825,4.899-24.057C80.252,39.857,78.564,31.564,75.353,24.05z
				 M64.246,36.405c1.478,3.707,2.629,7.727,2.629,11.745c0,4.021-1.151,8.1-2.629,11.806l3.823,1.328
				c1.779-4.376,2.958-8.62,2.958-13.327c0-4.617-1.029-9.158-2.778-13.509L64.246,36.405z"/>
		</g>
	</g>
</g>
</svg>
