<?xml version="1.0" encoding="utf-8"?>
<!DOCTYPE svg PUBLIC "-//W3C//DTD SVG 1.0//EN" "http://www.w3.org/TR/2001/REC-SVG-20010904/DTD/svg10.dtd">
<svg version="1.0" xmlns="http://www.w3.org/2000/svg" xmlns:xlink="http://www.w3.org/1999/xlink" x="0px" y="0px" width="96px"
	 height="96px" viewBox="0 0 96 96" enable-background="new 0 0 96 96" xml:space="preserve">
<g id="_x31_0_device_access_new_account">
	<g display="inline">
		<g>
			<g>
				<polygon fill-rule="evenodd" clip-rule="evenodd" fill="#333333" points="66.656,66.568 66.656,53.139 62.455,53.139 
					62.455,66.568 49.22,66.568 49.22,70.771 62.455,70.771 62.455,84.197 66.656,84.197 66.656,70.771 79.891,70.771 
					79.891,66.568 				"/>
			</g>
		</g>
		<g>
			<path fill="#333333" d="M16.109,56.246v7.018h7.016l2.343-2.338v-4.68h4.677v-4.68h4.68l8.854-8.856
				c2.253,1.171,4.802,1.839,7.517,1.839c9.041,0,16.374-7.33,16.374-16.374c0-9.039-7.333-16.372-16.374-16.372
				s-16.371,7.333-16.371,16.372c0,2.715,0.67,5.266,1.836,7.52L16.109,56.246z M51.195,23.496c0-2.581,2.095-4.675,4.682-4.675
				c2.582,0,4.674,2.094,4.674,4.675c0,2.587-2.092,4.679-4.674,4.679C53.29,28.175,51.195,26.083,51.195,23.496z"/>
		</g>
	</g>
</g>
</svg>
