<?xml version="1.0" encoding="utf-8"?>
<!DOCTYPE svg PUBLIC "-//W3C//DTD SVG 1.0//EN" "http://www.w3.org/TR/2001/REC-SVG-20010904/DTD/svg10.dtd">
<svg version="1.0" xmlns="http://www.w3.org/2000/svg" xmlns:xlink="http://www.w3.org/1999/xlink" x="0px" y="0px" width="96px"
	 height="96px" viewBox="0 0 96 96" enable-background="new 0 0 96 96" xml:space="preserve">
<g id="_x31_0_device_access_accounts">
	<g display="inline">
		<path fill="#333333" d="M55.407,45.371c1.666-3.223,2.629-6.876,2.629-10.756c0-12.932-10.488-23.42-23.421-23.42
			c-12.931,0-23.419,10.488-23.419,23.42c0,12.935,10.488,23.422,23.419,23.422c3.881,0,7.531-0.959,10.751-2.629l12.67,12.664
			h6.693c0,0.006,0,6.693,0,6.693h6.688v6.693l3.35,3.346h10.037V74.766L55.407,45.371z M27.922,34.615
			c-3.693,0-6.688-2.995-6.688-6.692c0-3.694,2.995-6.689,6.688-6.689c3.698,0,6.693,2.995,6.693,6.689
			C34.615,31.62,31.62,34.615,27.922,34.615z"/>
	</g>
</g>
</svg>
