<?xml version="1.0" encoding="utf-8"?>
<!DOCTYPE svg PUBLIC "-//W3C//DTD SVG 1.0//EN" "http://www.w3.org/TR/2001/REC-SVG-20010904/DTD/svg10.dtd">
<svg version="1.0" xmlns="http://www.w3.org/2000/svg" xmlns:xlink="http://www.w3.org/1999/xlink" x="0px" y="0px" width="96px"
	 height="96px" viewBox="0 0 96 96" enable-background="new 0 0 96 96" xml:space="preserve">
<g id="_x31_0_device_access_flash_automatic">
	<path display="inline" fill="#333333" d="M63.76,41.327L70.145,24H52.197l-4.851,25.203h8.974l-4.705,21.002h2.983L73.53,41.327
		H63.76z M34.283,58.034c-0.078-0.264-0.162-0.552-0.247-0.871c-0.083-0.321-0.168-0.636-0.246-0.956
		c-0.074-0.32-0.131-0.599-0.163-0.824c-0.026,0.143-0.058,0.31-0.1,0.504s-0.09,0.394-0.146,0.608l-0.163,0.651l-0.168,0.614
		l-0.142,0.515c-0.042,0.147-0.068,0.378-0.09,0.447l-0.897,3.081h3.439l-0.903-3.081C34.415,58.606,34.356,58.297,34.283,58.034z
		 M37.014,67.579l-0.961-3.149h-4.852l-0.971,3.149h-3.015l4.574-14.177h3.648l4.595,14.177H37.014z M33.448,50.048
		c-6.064,0-10.979,4.914-10.979,10.975C22.47,67.086,27.384,72,33.448,72c6.054,0,10.974-4.914,10.974-10.978
		C44.422,54.962,39.502,50.048,33.448,50.048z"/>
</g>
</svg>
