<?xml version="1.0" encoding="utf-8"?>
<!DOCTYPE svg PUBLIC "-//W3C//DTD SVG 1.0//EN" "http://www.w3.org/TR/2001/REC-SVG-20010904/DTD/svg10.dtd">
<svg version="1.0" xmlns="http://www.w3.org/2000/svg" xmlns:xlink="http://www.w3.org/1999/xlink" x="0px" y="0px" width="96px"
	 height="96px" viewBox="0 0 96 96" enable-background="new 0 0 96 96" xml:space="preserve">
<g id="_x31_0_device_access_volume_muted">
	<g display="inline">
		<g>
			<path fill-rule="evenodd" clip-rule="evenodd" fill="#333333" d="M77.289,19.094l-61.91,55.96l3.33,3.993l61.912-55.963
				L77.289,19.094z M25.399,61.12h0.454L50.08,39.239c-0.324-0.313-0.674-0.584-1.037-0.804c0.896-12.019,3.293-20.676,5.055-20.676
				c1.453,0,2.711,5.924,3.41,14.766l3.241-2.931C59.646,19.625,57.625,13,55.148,13h-5.924c-1.867,0-10.254,13.159-15.619,21.883
				h-8.206c-2.087,0-3.786,5.82-3.786,13.119C21.613,55.299,23.312,61.12,25.399,61.12z M58.053,49.529
				c-0.104,15.984-1.828,28.715-3.955,28.715c-1.749,0-4.146-8.621-5.042-20.559L37.441,68.172C42.38,75.43,47.85,83,49.225,83h5.77
				c3.811,0,6.675-15.751,6.675-35.077l-0.014-1.646L58.053,49.529z"/>
		</g>
	</g>
</g>
</svg>
