<?xml version="1.0" encoding="utf-8"?>
<!DOCTYPE svg PUBLIC "-//W3C//DTD SVG 1.0//EN" "http://www.w3.org/TR/2001/REC-SVG-20010904/DTD/svg10.dtd">
<svg version="1.0" xmlns="http://www.w3.org/2000/svg" xmlns:xlink="http://www.w3.org/1999/xlink" x="0px" y="0px" width="96px"
	 height="96px" viewBox="0 0 96 96" enable-background="new 0 0 96 96" xml:space="preserve">
<g id="_x31_0_device_access_data_usage">
	<g display="inline">
		<g>
			<path fill="#333333" d="M48,18c-16.549,0-30,13.46-30,30c0,16.55,13.451,30,30,30c16.541,0,30-13.45,30-30
				C78,31.46,64.541,18,48,18z M21.791,50.216L28.5,47.89l-6.706-2.146c0.462-5.42,2.569-10.375,5.826-14.362l5.441,2.807
				l-2.74-5.659c4.14-3.763,9.483-6.22,15.375-6.734L48,28.721v18.648l14.308,15.809l-0.548-0.318l3.177,5.261
				c-4.104,3.463-9.276,5.69-14.945,6.117L48,68.25l-1.997,5.986c-6.013-0.454-11.47-2.931-15.681-6.761l2.727-5.655l-5.426,2.806
				C24.357,60.627,22.247,55.653,21.791,50.216z"/>
		</g>
	</g>
</g>
</svg>
