<?xml version="1.0" encoding="utf-8"?>
<!DOCTYPE svg PUBLIC "-//W3C//DTD SVG 1.0//EN" "http://www.w3.org/TR/2001/REC-SVG-20010904/DTD/svg10.dtd">
<svg version="1.0" xmlns="http://www.w3.org/2000/svg" xmlns:xlink="http://www.w3.org/1999/xlink" x="0px" y="0px" width="96px"
	 height="96px" viewBox="0 0 96 96" enable-background="new 0 0 96 96" xml:space="preserve">
<g id="_x31_0_device_access_brightness_high">
	<g display="inline">
		<g>
			<path fill="#333333" d="M72.817,48.002l7.855-7.459l-10.309-3.313L74.2,27.105l-10.725,1.491L62.538,17.81l-9.012,5.993
				l-5.524-9.314l-5.522,9.314l-9.019-5.993l-0.937,10.787L21.8,27.105l3.84,10.124l-10.312,3.313l7.854,7.459l-7.854,7.457
				L25.64,58.77L21.8,68.895l10.725-1.489l0.937,10.787l9.019-5.993l5.522,9.312l5.524-9.312l9.012,5.993l0.938-10.787L74.2,68.895
				L70.364,58.77l10.309-3.311L72.817,48.002z M47.999,68.343c-11.234,0-20.342-9.108-20.342-20.343
				c0-11.235,9.107-20.343,20.342-20.343c11.235,0,20.344,9.107,20.344,20.343C68.343,59.234,59.234,68.343,47.999,68.343z
				 M47.999,31.523c-9.086,0-16.477,7.391-16.477,16.477c0,9.085,7.391,16.477,16.477,16.477S64.478,57.085,64.478,48
				C64.478,38.914,57.085,31.523,47.999,31.523z"/>
		</g>
	</g>
</g>
</svg>
