<?xml version="1.0" encoding="utf-8"?>
<!DOCTYPE svg PUBLIC "-//W3C//DTD SVG 1.0//EN" "http://www.w3.org/TR/2001/REC-SVG-20010904/DTD/svg10.dtd">
<svg version="1.0" xmlns="http://www.w3.org/2000/svg" xmlns:xlink="http://www.w3.org/1999/xlink" x="0px" y="0px" width="96px"
	 height="96px" viewBox="0 0 96 96" enable-background="new 0 0 96 96" xml:space="preserve">
<g id="_x31_0_device_access_ring_volume">
	<g display="inline">
		<g>
			<path fill="#333333" d="M79.051,64.943c-0.095-0.097-0.209-0.18-0.315-0.256l-0.005-0.019l-13.628-9.742l-0.019,0.01
				c-0.907-0.67-2.189-0.603-3.021,0.227c-0.076,0.08-0.148,0.172-0.215,0.27c-0.042,0.054-0.084,0.105-0.118,0.166
				c-0.912,1.309-0.905,1.477-1.646,2.615c-1.05,1.645-2.261,4.184-3.459,7.072c-3.829-0.592-9.526-3.915-15.76-10.153
				c-6.235-6.232-9.559-11.931-10.142-15.757c2.884-1.2,5.419-2.413,7.073-3.457c1.126-0.742,1.294-0.733,2.611-1.645
				c0.053-0.041,0.108-0.076,0.167-0.116l0.005-0.009c0.086-0.062,0.183-0.13,0.263-0.214c0.826-0.826,0.893-2.106,0.229-3.024
				v-0.016l-9.735-13.629h-0.021c-0.083-0.113-0.161-0.219-0.26-0.321c-0.838-0.83-2.148-0.891-3.062-0.192
				c-6.524,4.477-12.431,9.39-11.655,15.207c0.827,6.241,8.266,19.988,17.99,29.713c9.727,9.724,23.48,17.166,29.713,17.985
				c5.817,0.782,10.733-5.12,15.209-11.65C79.947,67.09,79.891,65.784,79.051,64.943z M73.188,46.063l3.183-0.829
				c-2.292-5.709-5.813-11.027-10.194-15.408c-4.388-4.389-9.698-7.902-15.407-10.193l-0.829,3.183
				c5.202,2.05,10.043,5.224,14.034,9.214S71.137,40.861,73.188,46.063z M52.65,29.074l-1.089,3.172
				c2.759,1.186,5.511,2.712,7.647,4.85c2.139,2.141,3.698,4.923,4.881,7.681l2.742-1.327c-1.382-3.275-3.012-6.161-5.518-8.666
				C58.861,32.327,55.894,30.458,52.65,29.074z"/>
		</g>
	</g>
</g>
</svg>
