<?xml version="1.0" encoding="utf-8"?>
<!DOCTYPE svg PUBLIC "-//W3C//DTD SVG 1.0//EN" "http://www.w3.org/TR/2001/REC-SVG-20010904/DTD/svg10.dtd">
<svg version="1.0" xmlns="http://www.w3.org/2000/svg" xmlns:xlink="http://www.w3.org/1999/xlink" x="0px" y="0px" width="96px"
	 height="96px" viewBox="0 0 96 96" enable-background="new 0 0 96 96" xml:space="preserve">
<g id="_x31_0_device_access_call">
	<path display="inline" fill="#333333" d="M81.418,69.391c0.746-0.981,0.685-2.376-0.213-3.276
		c-0.103-0.102-0.222-0.192-0.339-0.272l-0.004-0.021L66.29,55.405l-0.02,0.012c-0.973-0.718-2.342-0.646-3.232,0.242
		c-0.082,0.086-0.157,0.184-0.229,0.285v0.002c-0.047,0.058-0.09,0.113-0.127,0.18c-0.978,1.398-0.969,1.576-1.76,2.794
		c-1.123,1.759-2.417,4.474-3.698,7.561c-4.095-0.632-10.189-4.185-16.854-10.854c-6.669-6.664-10.224-12.758-10.847-16.848
		c3.083-1.283,5.796-2.579,7.563-3.696c1.207-0.793,1.385-0.785,2.792-1.759c0.057-0.044,0.115-0.081,0.178-0.125
		c0,0,0.006,0,0.006-0.007c0.092-0.068,0.195-0.141,0.281-0.229c0.884-0.883,0.956-2.252,0.244-3.233v-0.017L30.179,15.141h-0.023
		c-0.086-0.119-0.172-0.234-0.276-0.343c-0.896-0.888-2.296-0.953-3.274-0.206C19.627,19.377,13.312,24.63,14.141,30.85
		c0.886,6.674,8.839,21.372,19.239,31.767c10.403,10.397,25.109,18.353,31.775,19.23C71.376,82.683,76.631,76.372,81.418,69.391"/>
</g>
</svg>
