<?xml version="1.0" encoding="utf-8"?>
<!DOCTYPE svg PUBLIC "-//W3C//DTD SVG 1.0//EN" "http://www.w3.org/TR/2001/REC-SVG-20010904/DTD/svg10.dtd">
<svg version="1.0" xmlns="http://www.w3.org/2000/svg" xmlns:xlink="http://www.w3.org/1999/xlink" x="0px" y="0px" width="96px"
	 height="96px" viewBox="0 0 96 96" enable-background="new 0 0 96 96" xml:space="preserve">
<g id="_x31_0_device_access_sd_storage">
	<path display="inline" fill="#333333" d="M65.962,17.146H35.646c-1.705,0-3.084,1.376-3.084,3.076v17.951l-5.598,5.592v4.681
		c0,1.267,1.525,0.967,1.525,0.967c1.455,0,1.711,1.221,1.711,1.698v1.841c0,1.311-0.395,1.635-1.051,2.157l-2.104,1.772v19.281
		c0,1.486,1.205,2.691,2.693,2.691h36.605c1.482,0,2.691-1.205,2.691-2.691V20.229C69.036,18.521,67.659,17.146,65.962,17.146z
		 M46.599,19.95h2.804v14.026h-2.804V19.95z M38.183,33.976H35.38V22.755h2.803V33.976z M43.792,33.976h-2.807V22.755h2.807V33.976z
		 M55.011,33.976h-2.807V22.755h2.807V33.976z M60.62,33.976h-2.804V19.95h2.804V33.976z M66.228,33.976h-2.799V22.755h2.799V33.976
		z"/>
</g>
</svg>
