<?xml version="1.0" encoding="utf-8"?>
<!DOCTYPE svg PUBLIC "-//W3C//DTD SVG 1.0//EN" "http://www.w3.org/TR/2001/REC-SVG-20010904/DTD/svg10.dtd">
<svg version="1.0" xmlns="http://www.w3.org/2000/svg" xmlns:xlink="http://www.w3.org/1999/xlink" x="0px" y="0px" width="96px"
	 height="96px" viewBox="0 0 96 96" enable-background="new 0 0 96 96" xml:space="preserve">
<g id="_x31_0_device_access_location_found">
	<g display="inline">
		<path fill="#333333" d="M47.971,34.049c-7.702,0.013-13.939,6.273-13.926,13.979c0.016,7.702,6.277,13.938,13.98,13.921
			c7.703-0.014,13.941-6.271,13.924-13.976C61.939,40.268,55.68,34.032,47.971,34.049z"/>
		<path fill="#333333" d="M83.145,45.945l-8.325,0.014c-1.001-13.26-11.62-23.838-24.885-24.789l-0.016-8.33l-3.978,0.007
			l0.016,8.333C32.7,22.182,22.121,32.801,21.172,46.062l-8.33,0.018l0.006,3.973l8.328-0.016
			c1.005,13.258,11.625,23.834,24.888,24.785l0.013,8.338l3.977-0.006l-0.018-8.338c13.26-1.002,23.836-11.621,24.791-24.885
			l8.332-0.014L83.145,45.945z M48.039,70.945c-12.654,0.025-22.965-10.248-22.987-22.901
			c-0.027-12.655,10.247-22.972,22.901-22.997c12.656-0.023,22.973,10.252,22.995,22.909C70.976,60.609,60.693,70.922,48.039,70.945
			z"/>
	</g>
</g>
</svg>
