<?xml version="1.0" encoding="utf-8"?>
<!DOCTYPE svg PUBLIC "-//W3C//DTD SVG 1.0//EN" "http://www.w3.org/TR/2001/REC-SVG-20010904/DTD/svg10.dtd">
<svg version="1.0" xmlns="http://www.w3.org/2000/svg" xmlns:xlink="http://www.w3.org/1999/xlink" x="0px" y="0px" width="96px"
	 height="96px" viewBox="0 0 96 96" enable-background="new 0 0 96 96" xml:space="preserve">
<g id="_x31_0_device_access_network_wifi">
	<g display="inline">
		<g>
			<path fill="#333333" d="M10.627,31.826l7.371,8.988c8.176-6.662,18.622-10.67,30.001-10.67c11.37,0,21.815,4.008,30.003,10.68
				l7.371-8.998C63.678,14.148,32.32,14.148,10.627,31.826z M38.386,65.695l9.613,11.736l9.615-11.727
				c-2.588-2.309-5.952-3.709-9.615-3.709C44.327,61.996,40.974,63.396,38.386,65.695z M28.873,54.1l7.773,9.484
				c3.065-2.719,7.018-4.373,11.353-4.373c4.325,0,8.288,1.654,11.353,4.373l7.775-9.484c-5.225-4.25-11.877-6.811-19.128-6.811
				C40.749,47.289,34.086,49.85,28.873,54.1z M19.735,42.953l7.372,8.988c5.699-4.643,12.969-7.436,20.892-7.436
				c7.913,0,15.192,2.793,20.892,7.436l7.363-8.988C68.545,36.676,58.707,32.9,47.999,32.9C37.282,32.9,27.443,36.676,19.735,42.953
				z"/>
		</g>
	</g>
</g>
</svg>
