<?xml version="1.0" encoding="utf-8"?>
<!DOCTYPE svg PUBLIC "-//W3C//DTD SVG 1.0//EN" "http://www.w3.org/TR/2001/REC-SVG-20010904/DTD/svg10.dtd">
<svg version="1.0" xmlns="http://www.w3.org/2000/svg" xmlns:xlink="http://www.w3.org/1999/xlink" x="0px" y="0px" width="96px"
	 height="96px" viewBox="0 0 96 96" enable-background="new 0 0 96 96" xml:space="preserve">
<g id="_x31_0_device_access_end_call">
	<path display="inline" fill="#333333" d="M9.247,61.506c0.168,1.223,1.196,2.164,2.468,2.166c0.145,0,0.293-0.02,0.433-0.047
		l0.017,0.012l17.67-2.938l0.005-0.023c1.195-0.18,2.112-1.199,2.115-2.457c-0.004-0.117-0.019-0.24-0.04-0.363h-0.001
		c-0.009-0.074-0.018-0.145-0.038-0.217c-0.298-1.68-0.43-1.801-0.731-3.221c-0.45-2.037-1.454-4.873-2.73-7.961
		c3.342-2.449,10.163-4.246,19.592-4.243c9.426-0.005,16.25,1.792,19.583,4.243c-1.273,3.088-2.274,5.922-2.734,7.961
		c-0.293,1.414-0.424,1.535-0.73,3.219c-0.01,0.072-0.024,0.139-0.038,0.215c0,0-0.004,0.004,0.001,0.01
		c-0.018,0.113-0.039,0.236-0.037,0.359c-0.001,1.248,0.916,2.268,2.113,2.459l0.012,0.012l17.665,2.943l0.017-0.016
		c0.145,0.023,0.287,0.043,0.438,0.047c1.261-0.006,2.298-0.951,2.461-2.17c1.55-8.318,2.301-16.498-2.683-20.31
		c-5.346-4.093-21.361-8.86-36.066-8.858c-14.708,0.004-30.731,4.777-36.065,8.871C6.949,45.006,7.695,53.186,9.247,61.506"/>
</g>
</svg>
