<?xml version="1.0" encoding="utf-8"?>
<!DOCTYPE svg PUBLIC "-//W3C//DTD SVG 1.0//EN" "http://www.w3.org/TR/2001/REC-SVG-20010904/DTD/svg10.dtd">
<svg version="1.0" xmlns="http://www.w3.org/2000/svg" xmlns:xlink="http://www.w3.org/1999/xlink" x="0px" y="0px" width="96px"
	 height="96px" viewBox="0 0 96 96" enable-background="new 0 0 96 96" xml:space="preserve">
<g id="_x31_0_device_access_usb">
	<g display="inline">
		<path fill="#333333" d="M70.162,27.569H59.084v11.08h2.768v4.265l-11.248,5.722V24.802h5.984l-8.589-11.775l-8.588,11.775h5.984
			V53.41l-11.246-4.876v-5.11c1.649-0.963,2.77-2.728,2.77-4.774c0-3.058-2.477-5.54-5.541-5.54c-3.061,0-5.54,2.482-5.54,5.54
			c0,2.047,1.12,3.811,2.771,4.774v8.749l16.786,7.277v7.359c-3.305,1.099-5.705,4.178-5.705,7.854c0,4.587,3.72,8.31,8.309,8.31
			c4.593,0,8.313-3.723,8.313-8.31c0-3.677-2.4-6.756-5.709-7.854V54.854l16.791-8.543v-7.661h2.768V27.569z"/>
	</g>
</g>
</svg>
