<?xml version="1.0" encoding="utf-8"?>
<!DOCTYPE svg PUBLIC "-//W3C//DTD SVG 1.0//EN" "http://www.w3.org/TR/2001/REC-SVG-20010904/DTD/svg10.dtd">
<svg version="1.0" xmlns="http://www.w3.org/2000/svg" xmlns:xlink="http://www.w3.org/1999/xlink" x="0px" y="0px" width="96px"
	 height="96px" viewBox="0 0 96 96" enable-background="new 0 0 96 96" xml:space="preserve">
<g id="_x31_0_device_access_alarms">
	<g display="inline">
		<path fill="#333333" d="M48.087,23.533c-15.202,0-27.521,12.321-27.521,27.521c0,15.201,12.319,27.521,27.521,27.521
			c15.201,0,27.525-12.32,27.525-27.521C75.612,35.854,63.288,23.533,48.087,23.533z M48.087,74.162
			c-12.76,0-23.105-10.346-23.105-23.107c0-12.76,10.346-23.107,23.105-23.107c12.764,0,23.109,10.348,23.109,23.107
			C71.196,63.816,60.851,74.162,48.087,74.162z"/>
		<polygon fill="#333333" points="48.554,32.41 45.631,32.41 44.624,51.215 44.887,53.184 58.951,65.697 61.174,63.418 
			49.542,50.951 		"/>
		<path fill="#333333" d="M63.175,17.424l-1.585,4.431c7.375,3.419,13.241,9.522,16.313,17.075l4.406-1.576
			C78.755,28.485,71.861,21.33,63.175,17.424z"/>
		<path fill="#333333" d="M34.589,21.854l-1.586-4.431C24.157,21.4,17.185,28.751,13.69,37.846l4.402,1.575
			C21.114,31.643,27.054,25.343,34.589,21.854z"/>
	</g>
</g>
</svg>
