<?xml version="1.0" encoding="utf-8"?>
<!DOCTYPE svg PUBLIC "-//W3C//DTD SVG 1.0//EN" "http://www.w3.org/TR/2001/REC-SVG-20010904/DTD/svg10.dtd">
<svg version="1.0" xmlns="http://www.w3.org/2000/svg" xmlns:xlink="http://www.w3.org/1999/xlink" x="0px" y="0px" width="96px"
	 height="96px" viewBox="0 0 96 96" enable-background="new 0 0 96 96" xml:space="preserve">
<g id="_x31_2_hardware_headset">
	<g display="inline">
		<g>
			<path fill="#333333" d="M76.148,77.8V45.23c0-0.985-12.957-0.985-12.957,0V77.8C63.191,78.784,76.148,78.784,76.148,77.8z
				 M85.822,53.011V38.96c0-21.705-15.895-37.457-37.797-37.457c-21.904,0-37.803,15.752-37.803,37.457v13.978
				c-0.916,2.25-1.151,5.194-1.151,8.433c0,7.047,1.078,12.761,7.994,12.761v-25.52c-0.382,0-0.735,0.022-1.08,0.056V38.96
				c0-18.661,13.175-31.693,32.04-31.693c18.859,0,32.033,13.032,32.033,31.693v9.674c-0.357-0.037-0.729-0.06-1.123-0.06v25.52
				c0.123,0,0.229-0.016,0.349-0.02v16.488H60.918v-1.632H45.176v5.547h5.248v0.02h30.828c1.086,0,1.967-0.881,1.967-1.967V73.007
				c3.111-1.979,3.709-6.457,3.709-11.672C86.928,58.15,86.701,55.245,85.822,53.011z M19.849,44.905v32.57
				c0,0.984,12.96,0.984,12.96,0v-32.57C32.809,43.921,19.849,43.921,19.849,44.905z"/>
		</g>
	</g>
</g>
</svg>
