<?xml version="1.0" encoding="utf-8"?>
<!DOCTYPE svg PUBLIC "-//W3C//DTD SVG 1.0//EN" "http://www.w3.org/TR/2001/REC-SVG-20010904/DTD/svg10.dtd">
<svg version="1.0" xmlns="http://www.w3.org/2000/svg" xmlns:xlink="http://www.w3.org/1999/xlink" x="0px" y="0px" width="96px"
	 height="96px" viewBox="0 0 96 96" enable-background="new 0 0 96 96" xml:space="preserve">
<g id="_x31_2_hardware_gamepad">
	<g display="inline">
		<g>
			<path fill="#333333" d="M45.754,61.857h4.494c2.608,0,4.73-2.122,4.73-4.731l0.002-0.062l2.836-40.316
				c-0.016-2.595-2.133-4.7-4.73-4.7h-10.17c-2.6,0-4.715,2.105-4.732,4.7l2.838,40.378C41.021,59.735,43.144,61.857,45.754,61.857z
				 M81.838,69.376l-5.604-7.664c-0.98-1.295-2.284-2.872-4.195-2.872H58.711l-0.014,0.208c-0.014,3.511-4.936,6.863-8.449,6.863
				h-4.494c-3.515,0-9.125-3.353-9.137-6.863l-0.014-0.208H23.962c-1.911,0-3.215,1.577-4.194,2.872l-5.604,7.664
				c-1.014,1.362-2.197,2.656-2.197,4.477v7.254c0,3.137,2.542,2.839,5.677,2.839h60.713c3.136,0,5.677,0.298,5.677-2.839v-7.254
				C84.033,72.032,82.852,70.738,81.838,69.376z M68.514,71.704c-4.503,0-8.153-0.828-8.153-1.849s3.65-1.848,8.153-1.848
				c4.504,0,8.153,0.827,8.153,1.848S73.018,71.704,68.514,71.704z"/>
		</g>
	</g>
</g>
</svg>
