<?xml version="1.0" encoding="utf-8"?>
<!DOCTYPE svg PUBLIC "-//W3C//DTD SVG 1.0//EN" "http://www.w3.org/TR/2001/REC-SVG-20010904/DTD/svg10.dtd">
<svg version="1.0" xmlns="http://www.w3.org/2000/svg" xmlns:xlink="http://www.w3.org/1999/xlink" x="0px" y="0px" width="96px"
	 height="96px" viewBox="0 0 96 96" enable-background="new 0 0 96 96" xml:space="preserve">
<g id="_x31_2_hardware_headphones">
	<g display="inline">
		<g>
			<path fill="#333333" d="M63.191,53.209V85.78c0,0.983,12.959,0.983,12.959,0V53.209C76.15,52.226,63.191,52.226,63.191,53.209z
				 M85.825,60.99V46.939c0-21.704-15.898-37.457-37.801-37.457c-21.905,0-37.802,15.753-37.802,37.457v13.978
				c-0.916,2.25-1.152,5.195-1.152,8.433c0,7.048,1.077,12.761,7.993,12.761v-25.52c-0.377,0-0.734,0.023-1.079,0.057v-9.708
				c0-18.661,13.175-31.693,32.04-31.693c18.861,0,32.035,13.032,32.035,31.693v9.675c-0.357-0.037-0.729-0.061-1.122-0.061v25.52
				c6.915,0,7.991-5.713,7.991-12.758C86.929,66.13,86.702,63.225,85.825,60.99z M19.851,52.885v32.571
				c0,0.983,12.959,0.983,12.959,0V52.885C32.81,51.901,19.851,51.901,19.851,52.885z"/>
		</g>
	</g>
</g>
</svg>
