<?xml version="1.0" encoding="utf-8"?>
<!DOCTYPE svg PUBLIC "-//W3C//DTD SVG 1.0//EN" "http://www.w3.org/TR/2001/REC-SVG-20010904/DTD/svg10.dtd">
<svg version="1.0" xmlns="http://www.w3.org/2000/svg" xmlns:xlink="http://www.w3.org/1999/xlink" x="0px" y="0px" width="96px"
	 height="96px" viewBox="0 0 96 96" enable-background="new 0 0 96 96" xml:space="preserve">
<g id="_x31_2_hardware_phone">
	<path display="inline" fill="#333333" d="M64.459,24.308c0,0-0.211-4.193-1.328-5.488c-1.135-1.31-2.576-1.615-3.629-1.837
		c-1.232-0.261-3.497-0.618-7.289-0.837C50.481,16.045,49.125,16,47.807,16c-1.162,0-2.213,0.033-3.55,0.075l-0.643,0.021
		c-2.561,0.078-4.599,0.277-5.469,0.362c-0.188,0.018-0.317,0.03-0.384,0.035c-0.09,0.007-0.359,0.024-0.465,0.223
		c-0.005,0.014-0.014,0.026-0.017,0.039c-0.397,0.067-1.414,0.252-2.219,0.502c-1.341,0.418-2.077,0.955-2.719,1.986
		c-0.586,0.943-0.701,2.529-0.744,3.126c-0.007,0.062-0.011,0.15-0.011,0.15l-0.151,45.541l0.218,4.111c0,0,0.839,4.365,1.68,5.312
		c0.763,0.862,1.769,1.376,3.26,1.663c0.16,0.03,0.311,0.061,0.457,0.09c1.124,0.224,2.012,0.4,5.104,0.563
		c0.311,0.017,0.613,0.031,0.912,0.049C44.47,79.927,45.799,80,47.574,80c1.261,0,2.653-0.036,4.262-0.111
		c5.623-0.27,8.412-0.591,10.068-1.793c1.63-1.183,2.001-2.929,2.249-4.084l0.011-0.049c0.287-1.347,0.399-5.329,0.399-5.329
		L64.459,24.308z M47.975,76.745c-0.968,0-1.751-0.784-1.751-1.751s0.783-1.75,1.751-1.75s1.752,0.783,1.752,1.75
		S48.942,76.745,47.975,76.745z M61.678,67.378H34.193V23.544h27.484V67.378z"/>
</g>
</svg>
