<?xml version="1.0" encoding="utf-8"?>
<!DOCTYPE svg PUBLIC "-//W3C//DTD SVG 1.0//EN" "http://www.w3.org/TR/2001/REC-SVG-20010904/DTD/svg10.dtd">
<svg version="1.0" xmlns="http://www.w3.org/2000/svg" xmlns:xlink="http://www.w3.org/1999/xlink" x="0px" y="0px" width="96px"
	 height="96px" viewBox="0 0 96 96" enable-background="new 0 0 96 96" xml:space="preserve">
<g id="_x31_2_hardware_keyboard">
	<g display="inline">
		<g>
			<path fill="#333333" d="M9.738,23.836H1.746v7.988h7.992V23.836z M25.582,23.836H15.018v7.859h10.564V23.836z M41.427,23.836
				H30.865v7.859h10.562V23.836z M57.146,23.836H46.584v7.859h10.562V23.836z M73.124,23.836H62.558v7.859h10.566V23.836z
				 M78.535,23.836v7.859h15.719v-7.859H78.535z M14.891,37.042H1.746v7.988h13.145V37.042z M20.301,44.902h10.564v-7.86H20.301
				V44.902z M46.838,37.042H36.275v7.86h10.563V37.042z M51.996,44.902h10.562v-7.86H51.996V44.902z M67.842,44.902h10.565v-7.86
				H67.842V44.902z M83.688,44.902h10.566v-7.86H83.688V44.902z M20.43,50.053H1.746v7.986H20.43V50.053z M25.326,57.91h10.565
				v-7.857H25.326V57.91z M51.994,50.053H41.427v7.857h10.567V50.053z M57.148,57.91h10.564v-7.857H57.148V57.91z M73.252,57.91
				h21.002v-7.857H73.252V57.91z M20.427,72.164h52.571v-7.861H20.427V72.164z"/>
		</g>
	</g>
</g>
</svg>
