<?xml version="1.0" encoding="utf-8"?>
<!DOCTYPE svg PUBLIC "-//W3C//DTD SVG 1.0//EN" "http://www.w3.org/TR/2001/REC-SVG-20010904/DTD/svg10.dtd">
<svg version="1.0" xmlns="http://www.w3.org/2000/svg" xmlns:xlink="http://www.w3.org/1999/xlink" x="0px" y="0px" width="96px"
	 height="96px" viewBox="0 0 96 96" enable-background="new 0 0 96 96" xml:space="preserve">
<g id="_x38__images_rotate_left">
	<g display="inline">
		<path fill="#333333" d="M53.985,48.258c0-3.65-2.962-6.613-6.62-6.613c-3.652,0-6.614,2.963-6.614,6.613
			c0,3.654,2.962,6.616,6.614,6.616C51.023,54.874,53.985,51.912,53.985,48.258z"/>
		<path fill="#333333" d="M79.743,45.591c-0.312-4.239-1.42-8.308-3.285-12.102c-1.943-3.927-4.621-7.379-7.968-10.263
			c-3.335-2.881-7.149-5.024-11.325-6.371c-3.997-1.291-8.273-1.729-12.411-1.487c-4.271,0.315-8.341,1.425-12.127,3.308
			c-3.29,1.619-6.297,3.914-8.876,6.544l-0.038-0.025l-6.003-5.108l-1.542,21.102l20.591-4.88l-5.941-5.06l-0.039-0.025
			c1.677-1.59,3.758-3.141,5.841-4.168c2.667-1.319,5.636-2.136,8.597-2.354c3.135-0.166,6.147,0.164,8.937,1.059
			c2.969,0.957,5.685,2.488,8.073,4.55c2.385,2.059,4.299,4.521,5.68,7.324c1.336,2.698,2.133,5.594,2.355,8.612
			c0.045,0.599,0.066,1.18,0.066,1.759c0,2.447-0.379,4.859-1.119,7.158c-0.963,2.968-2.488,5.685-4.549,8.074
			c-2.071,2.395-4.531,4.312-7.327,5.688c-2.695,1.329-5.607,2.127-8.657,2.353c-0.564,0.043-1.143,0.061-1.732,0.065
			c-2.416,0-4.828-0.378-7.144-1.126c-2.968-0.961-5.686-2.491-8.079-4.547c-2.389-2.064-4.295-4.526-5.68-7.322l-8.229,4.143
			c1.937,3.932,4.615,7.381,7.956,10.266c3.352,2.884,7.159,5.025,11.33,6.365c3.219,1.043,6.582,1.574,9.989,1.574h0.156
			c0.763,0,1.531-0.031,2.294-0.089c4.226-0.312,8.296-1.423,12.094-3.296c3.931-1.946,7.388-4.623,10.267-7.963
			s5.023-7.145,6.363-11.318c1.042-3.24,1.571-6.614,1.571-10.025C79.832,47.198,79.804,46.398,79.743,45.591z"/>
	</g>
</g>
</svg>
