<?xml version="1.0" encoding="utf-8"?>
<!DOCTYPE svg PUBLIC "-//W3C//DTD SVG 1.0//EN" "http://www.w3.org/TR/2001/REC-SVG-20010904/DTD/svg10.dtd">
<svg version="1.0" xmlns="http://www.w3.org/2000/svg" xmlns:xlink="http://www.w3.org/1999/xlink" x="0px" y="0px" width="96px"
	 height="96px" viewBox="0 0 96 96" enable-background="new 0 0 96 96" xml:space="preserve">
<g id="_x38__images_rotate_right">
	<g display="inline">
		<path fill="#333333" d="M42.014,48.258c0,3.654,2.963,6.616,6.621,6.616c3.652,0,6.614-2.962,6.614-6.616
			c0-3.65-2.962-6.613-6.614-6.613C44.977,41.645,42.014,44.607,42.014,48.258z"/>
		<path fill="#333333" d="M64.281,65.67c-2.395,2.056-5.113,3.586-8.08,4.547c-2.316,0.748-4.727,1.126-7.143,1.126
			c-0.591-0.005-1.17-0.022-1.732-0.065c-3.052-0.226-5.964-1.023-8.658-2.353c-2.795-1.377-5.256-3.294-7.328-5.688
			c-2.06-2.39-3.586-5.106-4.549-8.074c-0.74-2.299-1.118-4.711-1.118-7.158c0-0.58,0.022-1.161,0.066-1.759
			c0.223-3.019,1.019-5.914,2.354-8.612c1.382-2.803,3.297-5.266,5.68-7.324c2.39-2.062,5.105-3.593,8.073-4.55
			c2.79-0.895,5.803-1.225,8.937-1.059c2.963,0.219,5.93,1.035,8.598,2.354c2.082,1.027,4.164,2.578,5.84,4.168l-0.038,0.025
			l-5.941,5.06l20.591,4.88L78.29,20.086l-6.003,5.108l-0.039,0.025c-2.578-2.63-5.584-4.925-8.875-6.544
			c-3.787-1.883-7.856-2.992-12.127-3.308c-4.137-0.241-8.413,0.196-12.41,1.487c-4.177,1.347-7.991,3.49-11.326,6.371
			c-3.347,2.884-6.025,6.336-7.968,10.263c-1.864,3.794-2.974,7.862-3.285,12.102c-0.062,0.808-0.089,1.607-0.089,2.414
			c0,3.411,0.528,6.785,1.57,10.025c1.342,4.174,3.484,7.979,6.363,11.318s6.336,6.017,10.268,7.963
			c3.798,1.873,7.867,2.984,12.095,3.296c0.762,0.058,1.53,0.089,2.293,0.089h0.156c3.407,0,6.771-0.531,9.988-1.574
			c4.171-1.34,7.979-3.481,11.331-6.365c3.341-2.885,6.02-6.334,7.957-10.266l-8.229-4.143C68.573,61.144,66.67,63.605,64.281,65.67
			z"/>
	</g>
</g>
</svg>
