<?xml version="1.0" encoding="utf-8"?>
<!DOCTYPE svg PUBLIC "-//W3C//DTD SVG 1.0//EN" "http://www.w3.org/TR/2001/REC-SVG-20010904/DTD/svg10.dtd">
<svg version="1.0" xmlns="http://www.w3.org/2000/svg" xmlns:xlink="http://www.w3.org/1999/xlink" x="0px" y="0px" width="96px"
	 height="96px" viewBox="0 0 96 96" enable-background="new 0 0 96 96" xml:space="preserve">
<g id="_x37__location_map">
	<g display="inline">
		<path fill="#333333" d="M19.435,72.134c-2.402-3.593,2.972-6.771,5.589-9.276c1.436-1.372,10.131-9.582,6.351-11.252
			c-2.306-1.019-10.373-8.166-13.083-6.369c-0.75,0.505-3,0.979-4.191,1.012v6.807c1.057,1.735,4.272,2.818,4.252,5.045
			C18.316,61.654,13.83,71.43,19.435,72.134z M20.809,31.646c0.86-0.735-1.711-2.809-0.06-3.241c0.4-0.103,5.89,3.12,5.926,2.684
			c0.11-1.305-6.05-4.947-7.374-5.7c-4.336-2.452-3.31,1.466-5.402,3.283v6.761c0.205-0.312,1.668-0.644,2.004-1.013
			C17.303,32.885,19.342,32.898,20.809,31.646z M65.298,60.389c1.737-0.996,1.269-5.241,0.77-5.848
			C65.152,55.391,63.682,61.308,65.298,60.389z M48.472,47.178c3.649,1.456,3.404,20.501,9.325,15.449
			c3.119-2.657,3.974-6.02,4.192-9.667c0.113-1.895,5.817-6.636,5.257-7.839c-0.468-0.995-3.468,1.459-3.612-0.739
			c-0.086-1.319-4.036-4.144-3.309-5.164c1.099-1.558,2.67,2.858,2.651,2.811c1.006,2.38,1.871,1.959,4.043,1.413
			c5.035-1.271,0.729-2.861-0.573-4.554c-1.728-2.25,5.501,0.438,5.969,0.443c2.896,0.024,3.398,6.896,4.948,6.555
			c0.99-0.219,3.488-2.726,4.771-4.239V23.594c-1.07,0.023-3.555,0.057-4.623,0.053c-1.259-0.01-7.622,0.602-7.325-1.797
			c0.03-0.226-8.618,2.379-9.542,2.145c-1.106-0.291,1.986-1.762,1.972-1.628c0.065-0.567-0.226-0.923-0.724-1.144h-3.924
			c-3.599,0.678-8.099,2.518-8.915,3.676c0.857-1.215,2.713,3.048,2.74,3.059c0.36,0.156,3.237-4.854,4.376-2.999
			c1.491,2.417-5.015,3.693-6.296,3.192c-0.909-0.356-2.429,1.747-2.786,1.401c-1.053-1.034-0.702-4.468-1.208-4.769
			c-1.481-0.878-2.501,3.775-2.696,4.062c-0.25,0.364,4.59,1.942,2.715,2.874c-0.482,0.241-4.805-0.162-4.125,2.042
			c1.076,3.487,8.688-3.791,9.772-1.247c0.801,1.871,8.728-0.562,10.228-0.935c-1.548,6.337-8.1,4.943-12.569,3.678
			c-4.22-1.192-8.75,3.069-8.952,7.136C39.902,49.592,44.959,45.76,48.472,47.178z M72.572,71.563
			c-1.893,0.717-2.16,3.666-1.792,4.792H81.93V65.283C79.343,67.023,76.776,69.961,72.572,71.563z M16.82,41.781
			c-0.172-1.403-2.298-2.281-2.922-3.172v1.41C14.838,40.93,16.815,41.738,16.82,41.781z M90.736,10.818H5.264v74.363h85.473V10.818
			z M85.204,79.435H10.628V16.742h74.576V79.435z"/>
	</g>
</g>
</svg>
