<?xml version="1.0" encoding="utf-8"?>
<!DOCTYPE svg PUBLIC "-//W3C//DTD SVG 1.0//EN" "http://www.w3.org/TR/2001/REC-SVG-20010904/DTD/svg10.dtd">
<svg version="1.0" xmlns="http://www.w3.org/2000/svg" xmlns:xlink="http://www.w3.org/1999/xlink" x="0px" y="0px" width="96px"
	 height="96px" viewBox="0 0 96 96" enable-background="new 0 0 96 96" xml:space="preserve">
<g id="_x37__location_directions">
	<path display="inline" fill="#333333" d="M77.206,46.809L49.188,18.797c-0.655-0.656-1.722-0.664-2.376,0L18.797,46.809
		c-0.655,0.656-0.655,1.717,0,2.378l28.016,28.016c0.326,0.33,0.757,0.494,1.183,0.494c0.433,0,0.862-0.164,1.188-0.494l2.394-2.387
		l25.63-25.629c0.314-0.318,0.488-0.74,0.488-1.187C77.694,47.551,77.521,47.125,77.206,46.809z M52.612,52.52v-5.007h-7.319v12.958
		h-5.97V41.846h0.012v-0.318h13.277v-5.062l10.951,8.029L52.612,52.52z"/>
</g>
</svg>
