<?xml version="1.0" encoding="utf-8"?>
<!DOCTYPE svg PUBLIC "-//W3C//DTD SVG 1.0//EN" "http://www.w3.org/TR/2001/REC-SVG-20010904/DTD/svg10.dtd">
<svg version="1.0" xmlns="http://www.w3.org/2000/svg" xmlns:xlink="http://www.w3.org/1999/xlink" x="0px" y="0px" width="96px"
	 height="96px" viewBox="0 0 96 96" enable-background="new 0 0 96 96" xml:space="preserve">
<g id="_x37__location_place">
	<path display="inline" fill-rule="evenodd" clip-rule="evenodd" fill="#333333" d="M48.001,41.312
		c-4.168,0-7.545-3.251-7.545-7.273c0-4.021,3.377-7.272,7.545-7.272c4.167,0,7.542,3.252,7.542,7.272
		C55.544,38.062,52.168,41.312,48.001,41.312z M65.339,24.536c-2.334-4.062-6.045-7.188-10.961-8.836
		c-0.854-0.291-1.729-0.521-2.647-0.688c-0.958-0.168-2-0.291-3.083-0.354h-0.646h-0.646c-1.084,0.063-2.126,0.187-3.084,0.354
		c-0.918,0.166-1.793,0.396-2.647,0.688c-4.897,1.648-8.627,4.773-10.961,8.836c-1.604,2.792-2.666,6.271-2.419,10.525
		c0.107,1.957,0.628,3.707,1.23,5.291c0.627,1.562,1.355,2.979,2.21,4.334c3.252,5.296,7.668,10.005,10.169,16.069
		c1.271,3.082,2.396,6.293,3.355,9.709c0.936,3.375,1.791,6.961,2.146,10.877h0.646h0.646c0.354-3.916,1.208-7.502,2.144-10.877
		c0.96-3.416,2.084-6.627,3.356-9.709c2.501-6.064,6.917-10.773,10.169-16.069c0.855-1.354,1.584-2.771,2.209-4.334
		c0.604-1.584,1.125-3.334,1.229-5.291C68.005,30.808,66.942,27.328,65.339,24.536z"/>
</g>
</svg>
