<?xml version="1.0" encoding="utf-8"?>
<!DOCTYPE svg PUBLIC "-//W3C//DTD SVG 1.0//EN" "http://www.w3.org/TR/2001/REC-SVG-20010904/DTD/svg10.dtd">
<svg version="1.0" xmlns="http://www.w3.org/2000/svg" xmlns:xlink="http://www.w3.org/1999/xlink" x="0px" y="0px" width="96px"
	 height="96px" viewBox="0 0 96 96" enable-background="new 0 0 96 96" xml:space="preserve">
<g id="_x37__location_web_site">
	<g display="inline">
		<polygon fill="#333333" points="75.59,40.646 75.916,40.481 76.039,40.158 75.986,40.193 75.625,39.984 75.236,39.914 
			75.086,40.381 75.258,40.622 		"/>
		<polygon fill="#333333" points="77.311,42.813 77.16,42.298 74.004,40.25 73.244,40.203 72.564,40.95 72.223,41.882 
			72.506,42.396 		"/>
		<polygon fill="#333333" points="28.922,40.347 28.559,41.653 29.736,40.316 29.834,39.9 29.327,39.701 		"/>
		<polygon fill="#333333" points="29.635,38.242 29.631,38.312 27.609,39.263 30.165,38.758 		"/>
		<polygon fill="#333333" points="31.164,40.774 31.413,40.575 31.631,40.07 31.595,40.138 31.771,39.543 31.289,39.473 
			30.922,39.566 30.681,39.824 30.559,40.25 30.881,40.665 		"/>
		<polygon fill="#333333" points="71.52,31.674 71.156,31.473 69.539,31.373 68.859,30.799 69.682,27.767 65.66,34.274 
			64.604,35.065 66.562,35.81 		"/>
		<polygon fill="#333333" points="75.312,49.709 79.314,56.066 76.086,50.057 		"/>
		<path fill="#333333" d="M48.004,10.924c-20.477,0-37.08,16.599-37.08,37.077c0,20.478,16.604,37.075,37.08,37.075
			c20.475,0,37.072-16.598,37.072-37.075C85.076,27.522,68.479,10.924,48.004,10.924z M60.359,36.397l-0.086,1.047l-1.518,0.353
			l-0.641-1.618l-0.012-3.153L60.359,36.397z M60.074,28.235l-0.949,0.74l-1.479-0.143l-0.121-0.301l0.047-1.363l1.096,0.242
			l1.148-0.258l0.539,0.217L60.074,28.235z M39.787,16.597l0.664-0.873c1.107-0.254,2.232-0.457,3.382-0.602l-3.599,2.354
			l-1.857,0.072L39.787,16.597z M36.134,17.287l0.695,0.137l2.415,1.371l0.58,0.088l-0.967,0.929l-1.563-0.211l-1.222-0.97
			L36.134,17.287z M34.701,17.6l0.146,0.211l-0.405,0.493l-0.736,0.315l-0.678,0.041l-0.132-0.178
			C33.493,18.18,34.086,17.863,34.701,17.6z M31.125,21.837l1.25-1.377l0.485,0.25l-0.182,0.895l-0.65,0.766l-0.907-0.133
			L31.125,21.837z M24.6,24.551l0.98-0.68L25.4,23.69c1.025-0.945,2.104-1.84,3.242-2.65l0.163,0.059l1.618-0.314l-0.047,1.809
			l-1.871,2.013l-2.396,1.105l-1.63-0.932L24.6,24.551z M15.324,51.586l-0.673-1.506c-0.006-0.111-0.018-0.223-0.018-0.334
			l0.717,1.23L15.324,51.586z M46.141,72.359l-3.656,2.697l-4.113,5.268c-2.38-0.717-4.631-1.709-6.752-2.908l-0.117-4.215
			l-3.93-7.602l0.061-1.482l1.13-2.705l-0.026-1.818l-1.239-1.371l-9.066-3.998l-3.011-5.117l-0.827-0.304l-0.016,0.053
			c-0.002-0.111-0.018-0.217-0.018-0.322c-0.067-8.88,3.362-16.956,8.966-22.987l1.031,0.574l5.699-1.172l0.674-0.393l0.15,0.311
			l-0.404,0.762L30.6,25.963l3.96-5.519l0.287-0.107l0.259-0.002l0.229,0.096l0.205,0.199l-2.491,4.642l0.956,0.9l1.348-0.924
			l0.3-4.163l1.704-0.537l-0.814,1.336l2.527-1.432l0.879,0.203l0.088,0.42l-1.608,0.287l3.037,2.587l1.179,2.023l-1.528,1.679
			l0.245,0.283l-1.112,1.762l-0.269-0.018l-0.57,0.305l-2.62-1.646l2.632-2.149l-0.393-0.869l-2.504-1.582l-0.805,2.268
			l-5.431,4.212l-1.777,2.669l1.508,1.718l2.444,1.125l1.029,0.924l2.137-5.466l0.824-0.794l3.664,1.767l0.42-0.059l3.01,7.271
			l-0.904,0.342l-1.119-0.057l-0.363-0.484l0.504-0.355l0.283-0.369l0.062-0.387l-0.164-0.409l-4.59,1.302l1.807,1.334l1.014,0.129
			l-6.981,3.89l-3.164,4.604l0.021,2.421l-1.168-0.277l-0.554-1.586l-3.773-0.702l-1.513,0.841l-1.272,1.729l-0.25,0.936
			l0.142,1.141l0.726,0.779l2.024-0.973l0.647,0.076l2.466,4.16l8.12,0.275l3.457,1.312l2.807,3.676l4.791,1.422l1.672,1.238
			L46.141,72.359z M34.859,29.081l-0.438,0.275l-1.392-0.006l-0.206-0.217l1.139-1.43l0.307,0.074l0.308,0.445L34.859,29.081z
			 M47.291,30.013l-0.763-2.188l0.288-2.073l1.201-2.819l-0.701-4.685l-2.422-0.314l-0.344-0.627l0.174-0.851l0.888-1.275
			l0.436-0.236c0.569-0.035,1.131-0.094,1.706-0.1c4.373-0.031,8.537,0.801,12.373,2.294l-2.211,5.923l-9.424,8.151L47.291,30.013z
			 M80.23,57.133c-2.053,7.486-6.629,13.924-12.779,18.332l-4.518-15.146l-2.373-0.678l-5.262,0.018l-3.184-1.877l0.18-3.727
			l4.273-8.4l-0.209-1.757l0.217-1.436l2.789-1.109l-0.176-0.789l-0.521-0.872l-0.047-0.613l6.451-4.755v-0.91l-2.297-1.765
			l-0.229-0.861l4.885-6.629l1.861-0.8l1.021,0.066c1.215,1.091,2.373,2.245,3.416,3.5l-0.445,0.135l1.211,1.242l0.211-0.088
			c2.844,3.774,4.932,8.156,5.969,12.941l-0.064,0.244l0.18,0.363c0.4,2.029,0.635,4.128,0.656,6.279
			c0.02,3.028-0.396,5.954-1.129,8.747l-0.258,0.16L80.23,57.133z"/>
		<polygon fill="#333333" points="75.564,45.457 70.559,44.097 70.055,43.485 70.154,44.941 70.025,45.054 66.105,40.962 
			66.1,40.991 65.471,41.144 65.365,40.993 65.555,41.782 67.1,42.913 67.217,43.739 66.914,44.247 66.691,44.411 66.41,44.513 
			64.938,42.196 62.723,42.21 58.104,45.639 64.164,45.416 66.904,47.901 68.209,48.358 75.482,46.898 		"/>
	</g>
</g>
</svg>
