<?xml version="1.0" encoding="utf-8"?>
<!DOCTYPE svg PUBLIC "-//W3C//DTD SVG 1.0//EN" "http://www.w3.org/TR/2001/REC-SVG-20010904/DTD/svg10.dtd">
<svg version="1.0" xmlns="http://www.w3.org/2000/svg" xmlns:xlink="http://www.w3.org/1999/xlink" x="0px" y="0px" width="96px"
	 height="96px" viewBox="0 0 96 96" enable-background="new 0 0 96 96" xml:space="preserve">
<g id="_x31__navigation_refresh">
	<path display="inline" fill-rule="evenodd" clip-rule="evenodd" fill="#333333" d="M58.986,24.938
		c-5.547-2.446-11.826-2.83-17.658-0.981c-11.08,3.488-18.276,14.001-17.529,25.577l-7.561,0.493
		c-0.98-15.07,8.4-28.758,22.805-33.307c8.441-2.66,17.58-1.739,25.344,2.456l7.258-7.753l1.932,21.512l-22.787,0.758L58.986,24.938
		z M58.705,79.11c-3.193,1.001-6.51,1.506-9.805,1.506c-5.369,0-10.695-1.384-15.507-3.973l-7.268,7.765l-1.931-21.513l22.774-0.767
		l-8.188,8.764c5.54,2.437,11.817,2.82,17.651,0.98c11.078-3.498,18.285-14.021,17.527-25.575l7.562-0.496
		C82.512,60.854,73.131,74.552,58.705,79.11z"/>
</g>
</svg>
