<?xml version="1.0" encoding="utf-8"?>
<!DOCTYPE svg PUBLIC "-//W3C//DTD SVG 1.0//EN" "http://www.w3.org/TR/2001/REC-SVG-20010904/DTD/svg10.dtd">
<svg version="1.0" xmlns="http://www.w3.org/2000/svg" xmlns:xlink="http://www.w3.org/1999/xlink" x="0px" y="0px" width="96px"
	 height="96px" viewBox="0 0 96 96" enable-background="new 0 0 96 96" xml:space="preserve">
<g id="_x33__rating_favorite">
	<g display="inline">
		<path fill="#333333" d="M47.999,30.396c2.303-5.186,6.336-10.206,12.096-10.206c3.366,0,6.469,1.638,9.305,4.913
			c2.701,3.107,4.057,6.23,4.057,9.374c0,4.696-1.289,9.612-3.856,14.756c-2.217,4.429-5.407,9.101-9.572,14.02
			c-3.146,3.722-7.199,7.952-12.159,12.693c-4.301-4.122-8.153-8.216-11.564-12.294c-4.168-5.007-7.4-9.682-9.705-14.025
			c-2.7-5.137-4.055-9.744-4.055-13.818c0-3.9,1.195-7.422,3.592-10.566c2.614-3.461,5.801-5.187,9.57-5.187
			C41.64,20.055,45.739,25.122,47.999,30.396z"/>
	</g>
</g>
</svg>
