<?xml version="1.0" encoding="utf-8"?>
<!DOCTYPE svg PUBLIC "-//W3C//DTD SVG 1.0//EN" "http://www.w3.org/TR/2001/REC-SVG-20010904/DTD/svg10.dtd">
<svg version="1.0" xmlns="http://www.w3.org/2000/svg" xmlns:xlink="http://www.w3.org/1999/xlink" x="0px" y="0px" width="96px"
	 height="96px" viewBox="0 0 96 96" enable-background="new 0 0 96 96" xml:space="preserve">
<g id="_x33__rating_not_important">
	<path display="inline" fill="#333333" d="M47.999,18.207l8.375,19.686l0.67,1.574l1.703,0.15l21.311,1.879L63.923,55.546
		l-1.29,1.123l0.384,1.667l4.796,20.85L49.465,68.181l-1.467-0.88l-1.467,0.88L28.185,79.185l4.799-20.849l0.383-1.667l-1.29-1.123
		L15.943,41.497l21.31-1.879l1.704-0.15l0.67-1.574L47.999,18.207 M47.998,10.921L37.003,36.776L9.015,39.245l21.189,18.451
		l-6.303,27.383l24.097-14.453l24.097,14.453l-6.299-27.383l21.189-18.451l-27.988-2.469L47.998,10.921L47.998,10.921z"/>
</g>
</svg>
