<?xml version="1.0" encoding="utf-8"?>
<!DOCTYPE svg PUBLIC "-//W3C//DTD SVG 1.0//EN" "http://www.w3.org/TR/2001/REC-SVG-20010904/DTD/svg10.dtd">
<svg version="1.0" xmlns="http://www.w3.org/2000/svg" xmlns:xlink="http://www.w3.org/1999/xlink" x="0px" y="0px" width="96px"
	 height="96px" viewBox="0 0 96 96" enable-background="new 0 0 96 96" xml:space="preserve">
<g id="_x36__social_add_group">
	<g display="inline">
		<polygon fill="#333333" points="81.396,71.337 81.396,58.21 77.413,58.21 77.413,71.337 64.486,71.337 64.486,75.319 
			77.413,75.319 77.413,88.271 81.396,88.271 81.396,75.319 94.407,75.319 94.407,71.337 		"/>
		<g>
			<g>
				<path fill="#333333" d="M44.691,47.376c10.954,0,19.825-8.873,19.825-19.825c0-10.948-8.871-19.821-19.825-19.821
					c-10.946,0-19.818,8.873-19.818,19.821C24.873,38.503,33.745,47.376,44.691,47.376z M59.793,33.497
					c-3.029,5.874-8.222,9.753-14.133,9.753c-5.909,0-11.107-3.879-14.136-9.753H59.793z M16.895,40.337
					c2.774,0,5.292-1.067,7.188-2.803c-0.33-0.68-0.629-1.378-0.892-2.093c-1.572,1.661-3.575,2.677-5.774,2.677
					c-3.179,0-5.973-2.086-7.601-5.244h12.606c-0.408-1.709-0.632-3.49-0.632-5.323c0-2.346,0.356-4.61,1.014-6.743
					c-1.691-1.128-3.723-1.788-5.909-1.788c-5.885,0-10.655,4.771-10.655,10.658S11.01,40.337,16.895,40.337z M83.164,29.678
					c0-5.888-4.771-10.658-10.66-10.658c-2.189,0-4.224,0.663-5.916,1.795c0.657,2.131,1.013,4.394,1.013,6.736
					c0,1.833-0.224,3.614-0.632,5.323h13.655c-1.629,3.158-4.421,5.244-7.599,5.244c-2.566,0-4.87-1.376-6.524-3.562
					c-0.33,1.022-0.727,2.016-1.189,2.97c1.896,1.741,4.416,2.812,7.192,2.812C78.394,40.337,83.164,35.565,83.164,29.678z
					 M56.654,49.945c-3.564,1.913-7.637,3.002-11.963,3.002c-4.319,0-8.391-1.089-11.956-3.001
					c-7.7,2.023-13.735,6.819-16.504,17.13h56.931C70.396,56.764,64.362,51.968,56.654,49.945z M29.558,45.528
					c-1.645-1.993-3.778-3.167-6.231-3.811c-1.917,1.028-4.106,1.614-6.433,1.614c-2.322,0-4.511-0.586-6.428-1.613
					c-4.14,1.088-7.385,3.666-8.874,9.21h18.35C22.636,48.547,25.844,46.743,29.558,45.528z M72.504,43.332
					c-2.321,0-4.512-0.586-6.428-1.613c-2.451,0.645-4.585,1.817-6.23,3.812c3.713,1.214,6.918,3.018,9.608,5.397h18.358
					c-1.487-5.545-4.732-8.123-8.877-9.211C77.02,42.746,74.829,43.332,72.504,43.332z"/>
			</g>
		</g>
	</g>
</g>
</svg>
