<?xml version="1.0" encoding="utf-8"?>
<!DOCTYPE svg PUBLIC "-//W3C//DTD SVG 1.0//EN" "http://www.w3.org/TR/2001/REC-SVG-20010904/DTD/svg10.dtd">
<svg version="1.0" xmlns="http://www.w3.org/2000/svg" xmlns:xlink="http://www.w3.org/1999/xlink" x="0px" y="0px" width="96px"
	 height="96px" viewBox="0 0 96 96" enable-background="new 0 0 96 96" xml:space="preserve">
<g id="_x36__social_group">
	<g display="inline">
		<g>
			<path fill="#333333" d="M47.99,19.121c-10.653,0-19.289,8.636-19.289,19.291c0,10.658,8.636,19.295,19.289,19.295
				c10.66,0,19.293-8.637,19.293-19.295C67.283,27.757,58.65,19.121,47.99,19.121z M48.933,53.689c-5.752,0-10.81-3.773-13.758-9.49
				h27.511C59.738,49.916,54.686,53.689,48.933,53.689z"/>
			<g>
				<path fill="#333333" d="M27.065,46.091c-1.53,1.617-3.48,2.605-5.62,2.605c-3.094,0-5.812-2.03-7.396-5.104h12.268
					c-0.398-1.663-0.615-3.397-0.615-5.181c0-2.283,0.347-4.486,0.986-6.562c-1.646-1.098-3.622-1.74-5.75-1.74
					c-5.729,0-10.37,4.643-10.37,10.372c0,5.73,4.642,10.374,10.37,10.374c2.7,0,5.15-1.039,6.996-2.729
					C27.611,47.466,27.321,46.787,27.065,46.091z"/>
			</g>
			<g>
				<path fill="#333333" d="M75.057,30.109c-2.131,0-4.111,0.645-5.758,1.746c0.641,2.074,0.984,4.275,0.984,6.557
					c0,1.783-0.215,3.518-0.613,5.181h13.289c-1.584,3.073-4.301,5.104-7.395,5.104c-2.498,0-4.74-1.339-6.35-3.468
					c-0.32,0.996-0.707,1.962-1.158,2.891c1.846,1.693,4.299,2.736,7,2.736c5.732,0,10.375-4.644,10.375-10.374
					C85.432,34.752,80.789,30.109,75.057,30.109z"/>
			</g>
		</g>
		<g>
			<path fill="#333333" d="M59.633,60.207c-3.471,1.861-7.434,2.92-11.643,2.92c-4.205,0-8.166-1.059-11.637-2.92
				c-7.494,1.971-13.367,6.637-16.062,16.672h55.405C73.006,66.842,67.133,62.176,59.633,60.207z"/>
			<g>
				<g>
					<path fill="#333333" d="M33.262,55.908c-1.602-1.941-3.677-3.082-6.065-3.709c-1.864,1-3.995,1.57-6.259,1.57
						c-2.26,0-4.392-0.568-6.257-1.57c-4.029,1.06-7.188,3.568-8.636,8.965h17.858C26.524,58.846,29.646,57.09,33.262,55.908z"/>
				</g>
			</g>
			<g>
				<g>
					<path fill="#333333" d="M72.09,61.164h17.865c-1.447-5.396-4.605-7.906-8.639-8.965c-1.865,1-3.996,1.57-6.26,1.57
						c-2.26,0-4.391-0.568-6.256-1.57c-2.385,0.627-4.461,1.77-6.062,3.711C66.352,57.092,69.469,58.848,72.09,61.164z"/>
				</g>
			</g>
		</g>
	</g>
</g>
</svg>
