<?xml version="1.0" encoding="utf-8"?>
<!DOCTYPE svg PUBLIC "-//W3C//DTD SVG 1.0//EN" "http://www.w3.org/TR/2001/REC-SVG-20010904/DTD/svg10.dtd">
<svg version="1.0" xmlns="http://www.w3.org/2000/svg" xmlns:xlink="http://www.w3.org/1999/xlink" x="0px" y="0px" width="96px"
	 height="96px" viewBox="0 0 96 96" enable-background="new 0 0 96 96" xml:space="preserve">
<g id="_x36__social_add_person">
	<g display="inline">
		<polygon fill="#333333" points="74.076,71.337 74.076,58.21 70.094,58.21 70.094,71.337 57.167,71.337 57.167,75.319 
			70.094,75.319 70.094,88.271 74.076,88.271 74.076,75.319 87.088,75.319 87.088,71.337 		"/>
		<path fill="#333333" d="M37.372,7.729c-10.946,0-19.818,8.873-19.818,19.821c0,10.952,8.872,19.825,19.818,19.825
			c10.954,0,19.825-8.873,19.825-19.825C57.197,16.603,48.326,7.729,37.372,7.729z M38.341,43.25
			c-5.909,0-11.107-3.879-14.137-9.753h28.27C49.444,39.371,44.252,43.25,38.341,43.25z"/>
		<path fill="#333333" d="M49.335,49.945c-3.564,1.913-7.638,3.002-11.963,3.002c-4.319,0-8.392-1.089-11.956-3.001
			c-7.7,2.023-13.735,6.819-16.504,17.13h56.931C63.076,56.764,57.043,51.968,49.335,49.945z"/>
	</g>
</g>
</svg>
