<?xml version="1.0" encoding="utf-8"?>
<!DOCTYPE svg PUBLIC "-//W3C//DTD SVG 1.0//EN" "http://www.w3.org/TR/2001/REC-SVG-20010904/DTD/svg10.dtd">
<svg version="1.0" xmlns="http://www.w3.org/2000/svg" xmlns:xlink="http://www.w3.org/1999/xlink" x="0px" y="0px" width="96px"
	 height="96px" viewBox="0 0 96 96" enable-background="new 0 0 96 96" xml:space="preserve">
<g id="_x36__social_cc_bcc">
	<g display="inline">
		<g>
			<path fill="#333333" d="M36.015,60.158c9.123,0,16.513-7.391,16.513-16.514c0-9.12-7.39-16.512-16.513-16.512
				c-9.12,0-16.512,7.392-16.512,16.512C19.503,52.768,26.895,60.158,36.015,60.158z M48.595,48.598
				c-2.523,4.893-6.851,8.125-11.775,8.125c-4.921,0-9.252-3.232-11.774-8.125H48.595z M45.98,62.301
				c-2.97,1.592-6.363,2.5-9.966,2.5c-3.6,0-6.99-0.906-9.962-2.5c-6.415,1.686-11.443,5.68-13.746,14.27h47.422
				C57.424,67.98,52.398,63.984,45.98,62.301z M55.74,40.894h16.816c-2.521,4.893-6.85,8.124-11.773,8.124
				c-1.859,0-3.635-0.462-5.26-1.301c-0.271,1.295-0.662,2.545-1.172,3.734c1.758,0.639,3.648,1.004,5.627,1.004
				c9.123,0,16.514-7.392,16.514-16.515c0-9.119-7.391-16.511-16.514-16.511c-5.664,0-10.656,2.854-13.631,7.198
				C51.35,29.676,54.9,34.85,55.74,40.894z M69.943,54.598c-2.969,1.592-6.363,2.498-9.965,2.498c-2.824,0-5.516-0.564-7.98-1.574
				c-1.086,1.451-2.359,2.754-3.791,3.865c5.375,1.705,9.365,4.838,12.062,9.479h23.424C81.389,60.275,76.363,56.281,69.943,54.598z
				"/>
		</g>
	</g>
</g>
</svg>
