<svg width="296" height="200" viewBox="0 0 296 200" xmlns="http://www.w3.org/2000/svg" style="background:#f5f5f5">
    <path d="M64 16C77.255 16 88 5.255 88-8S77.255-32 64-32 40-21.255 40-8s10.745 24 24 24zM32 28h64v8H32v-8zm32 88c13.255 0 24-10.745 24-24S77.255 68 64 68 40 78.745 40 92s10.745 24 24 24zm-32 12h64v8H32v-8zM148 16c13.255 0 24-10.745 24-24s-10.745-24-24-24-24 10.745-24 24 10.745 24 24 24zm-32 12h64v8h-64v-8zm116-12c13.255 0 24-10.745 24-24s-10.745-24-24-24-24 10.745-24 24 10.745 24 24 24zm-32 12h64v8h-64v-8zm32 88c13.255 0 24-10.745 24-24s-10.745-24-24-24-24 10.745-24 24 10.745 24 24 24zm-32 12h64v8h-64v-8zM64 216c13.255 0 24-10.745 24-24s-10.745-24-24-24-24 10.745-24 24 10.745 24 24 24zm84 0c13.255 0 24-10.745 24-24s-10.745-24-24-24-24 10.745-24 24 10.745 24 24 24zm84 0c13.255 0 24-10.745 24-24s-10.745-24-24-24-24 10.745-24 24 10.745 24 24 24z" fill="#E0E0E0"/>
    <path d="M148 116c13.255 0 24-10.745 24-24s-10.745-24-24-24-24 10.745-24 24 10.745 24 24 24zm-32 12h64v8h-64v-8z" fill="#2979FF"/>
</svg>
