<svg width="296" height="200" viewBox="0 0 296 200" xmlns="http://www.w3.org/2000/svg" style="background:#f5f5f5">
    <path d="M26 60v80a4 4 0 0 0 4.007 4h235.986a3.998 3.998 0 0 0 4.007-4V60a4 4 0 0 0-4.007-4H30.007A3.998 3.998 0 0 0 26 60zm-2 0c0-3.313 2.68-6 6.007-6h235.986A6 6 0 0 1 272 60v80c0 3.313-2.68 6-6.007 6H30.007A6 6 0 0 1 24 140V60zm2 100v80a4 4 0 0 0 4.007 4h235.986a3.998 3.998 0 0 0 4.007-4v-80a4 4 0 0 0-4.007-4H30.007A3.998 3.998 0 0 0 26 160zm-2 0c0-3.313 2.68-6 6.007-6h235.986a6 6 0 0 1 6.007 6v80c0 3.313-2.68 6-6.007 6H30.007A6 6 0 0 1 24 240v-80zm2-200v80a4 4 0 0 0 4.007 4h235.986A3.998 3.998 0 0 0 270 40v-80a4 4 0 0 0-4.007-4H30.007A3.998 3.998 0 0 0 26-40zm-2 0c0-3.313 2.68-6 6.007-6h235.986A6 6 0 0 1 272-40v80c0 3.313-2.68 6-6.007 6H30.007A6 6 0 0 1 24 40v-80z" fill="#E0E0E0"/>
    <path d="M72 76h64v8H72v-8zm-32 30h216v8H40v-8zm0 16h216v8H40v-8zm32 54h64v8H72v-8zM40 6h216v8H40V6zm0 16h216v8H40v-8zm10 168c5.523 0 10-4.477 10-10s-4.477-10-10-10-10 4.477-10 10 4.477 10 10 10z" fill="#E0E0E0"/>
    <circle fill="#2979FF" cx="50" cy="80" r="10"/>
</svg>
