<svg width="296" height="200" viewBox="0 0 296 200" xmlns="http://www.w3.org/2000/svg" style="background:#f5f5f5">
    <path d="M155.172 104h120.824A3.996 3.996 0 0 0 280 99.997V68.003A4.003 4.003 0 0 0 275.996 64H128.004A3.996 3.996 0 0 0 124 68.003v31.994a4.003 4.003 0 0 0 4.004 4.003h12.824l7.172 7.172 7.172-7.172zM148 114l-8-8h-11.996A6.003 6.003 0 0 1 122 99.997V68.003A5.996 5.996 0 0 1 128.004 62h147.992A6.003 6.003 0 0 1 282 68.003v31.994a5.996 5.996 0 0 1-6.004 6.003H156l-8 8zm-24-97.997v31.994A4.003 4.003 0 0 0 128.004 52h147.992A3.996 3.996 0 0 0 280 47.997V16.003A4.003 4.003 0 0 0 275.996 12H128.004A3.996 3.996 0 0 0 124 16.003zm-2 0A5.996 5.996 0 0 1 128.004 10h147.992A6.003 6.003 0 0 1 282 16.003v31.994A5.996 5.996 0 0 1 275.996 54H128.004A6.003 6.003 0 0 1 122 47.997V16.003z" fill="#E0E0E0"/>
    <path d="M148 166c13.255 0 24-10.745 24-24s-10.745-24-24-24-24 10.745-24 24 10.745 24 24 24zm-32 12h64v8h-64v-8zm116-12c13.255 0 24-10.745 24-24s-10.745-24-24-24-24 10.745-24 24 10.745 24 24 24zm-32 12h64v8h-64v-8zM64 166c13.255 0 24-10.745 24-24s-10.745-24-24-24-24 10.745-24 24 10.745 24 24 24zm-32 12h64v8H32v-8zM170 28h80v8h-80v-8zm0 52h80v8h-80v-8zM64 66c13.255 0 24-10.745 24-24S77.255 18 64 18 40 28.745 40 42s10.745 24 24 24zM32 78h64v8H32v-8z" fill="#E0E0E0"/>
    <path d="M148 42c5.523 0 10-4.477 10-10s-4.477-10-10-10-10 4.477-10 10 4.477 10 10 10zm0 52c5.523 0 10-4.477 10-10s-4.477-10-10-10-10 4.477-10 10 4.477 10 10 10z" fill="#2979FF"/>
</svg>
