<svg width="296" height="200" viewBox="0 0 296 200" xmlns="http://www.w3.org/2000/svg" style="background:#f5f5f5">
    <path d="M34 88h36v-4H34v4zm0-10h36v-4H34v4zm0-14v4h36v-4H34zm71.768-1.722l17 29.444 3.464-2-17-29.444-3.464 2zm17.528-5.64l-3.819 1.189 9.338 29.98 3.819-1.19-9.338-29.98zm-27.713 16l2.94-2.713L119.817 93l-2.94 2.713-21.294-23.077zM260 74h-24.34l11.18-11.18L244 60l-16 16 16 16 2.82-2.82L235.66 78H260v-4zm-80 64h84v4h-84v-4z" fill="#E0E0E0"/>
    <path d="M172.252 138H32v4h140.252a8 8 0 1 0 0-4zm.168-50.21l1.043.601 1.088 2.565 20.712-8.792-1.563-3.682-16.987 7.21 13.02-22.548-3.465-2-13.109 22.704-2.276-18.539-3.97.488 2.742 22.332 2.765-.34z" fill="#2979FF"/>
</svg>
